/* XPM */
static char *_1b13d06afdb4033c49942c8bdc25c1flubCFyXF7TmQOyGT[] = {
/* columns rows colors chars-per-pixel */
"64 64 103 2 ",
"   c #78756F",
".  c #7C786F",
"X  c #797771",
"o  c #777872",
"O  c #7E7B75",
"+  c #827D75",
"@  c #837E79",
"#  c #848077",
"$  c #8A8076",
"%  c #85827B",
"&  c #8B857C",
"*  c #8D887F",
"=  c #91877D",
"-  c #928B7F",
";  c #858582",
":  c #8B8782",
">  c #878882",
",  c #8C8A84",
"<  c #888788",
"1  c #8D8D8A",
"2  c #938D84",
"3  c #9A8E83",
"4  c #928E8A",
"5  c #8F908B",
"6  c #969186",
"7  c #9A9286",
"8  c #94928C",
"9  c #9B958C",
"0  c #9D988E",
"q  c #908F90",
"w  c #959491",
"e  c #9A9691",
"r  c #979891",
"t  c #9C9A94",
"y  c #9E9D99",
"u  c #A0968A",
"i  c #A29A8E",
"p  c #A19790",
"a  c #A39C94",
"s  c #A89F94",
"d  c #A29E99",
"f  c #A89F98",
"g  c #9FA09A",
"h  c #A6A096",
"j  c #AAA296",
"k  c #A5A29B",
"l  c #AAA49C",
"z  c #ADA89E",
"x  c #B0A79D",
"c  c #B1A99E",
"v  c #A6A6A2",
"b  c #ABA6A1",
"n  c #ADA9A0",
"m  c #ADA9A4",
"M  c #AEABA5",
"N  c #ABABA8",
"B  c #AEACA9",
"V  c #B0A7A0",
"C  c #B2ABA0",
"Z  c #B4AAA2",
"A  c #B4ABA3",
"S  c #B4ADA3",
"D  c #B2ACA4",
"F  c #B2ADA4",
"G  c #B4ACA4",
"H  c #B4AEA6",
"J  c #B8AEA6",
"K  c #B3AFA9",
"L  c #B2AFAB",
"P  c #B1AFAC",
"I  c #B4AFAC",
"U  c #B6B0A6",
"Y  c #B6B0A7",
"T  c #B9B1A6",
"R  c #B7B1A9",
"E  c #B7B3AA",
"W  c #B3B0AE",
"Q  c #B6B2AD",
"!  c #BBB3A8",
"~  c #BAB2AB",
"^  c #BBB4A9",
"/  c #BBB4AA",
"(  c #BBB3AC",
")  c #BAB4AE",
"_  c #BEB5AE",
"`  c #BDB8AD",
"'  c #BAB6B2",
"]  c #BCB6B1",
"[  c #BDB9B2",
"{  c #BEB9B3",
"}  c #BBB8B4",
"|  c #C0B6AB",
" . c #C0B7AF",
".. c #C1B9AF",
"X. c #C1BAAE",
"o. c #C1BAB2",
"O. c #C3BCB3",
"+. c #C5BCB1",
"@. c #C7BEB7",
"#. c #C3BEB9",
"$. c #C9C0B7",
"%. c #C5C1BB",
"&. c #C9C3B9",
/* pixels */
", 4 H l p a k l l z s & = & 9 u 0 9 n 0 e t 0 0 l & 2 & , s 3 9 i 4 4 a H p a a d k l A & $ - 3 p 0 9 k a 0 t t 9 C : 2 , & 6 i ",
"4 2 S l l a a k l A l @ & & 0 2 9 9 z a p t 9 i l % , & & 0 u i 2 , 4 h C a p 9 a p l S + % & 6 0 2 t k s a t t 9 H % * & & & l ",
"p a .._ ~ ) R ) o.@.o.l l S C C C z / H H F F ~ S 0 9 , & s l l j 0 a /  .~ Y H ~ ) o.+.z l x C F n C F T H F R ..&.a l 6 & * T ",
"B ' 6 0 p a p i j z d k e a C k t k F b n 9 t t p 0 t 0 n L v v N P W k 2 p s s i s F a l e a H d t y M M F 9 h k k h k a t L y ",
"L I p 9 7 3 3 7 i z n e t t k w k M M R F p p l k l a 0 l L L B } L Q d 0 9 3 3 7 9 x l a w t l r t M n F { a p l k l z p 9 Q t ",
"{ %.F h i 9 i i j ~ F l k n M g M F Q #.F 6 6 a a a l 0 Y W M W ' { %.R l s 9 i 9 s ~ n n k k ~ y b Q L ' %.9 6 l k k l h 9 F y ",
"F R F a a t p l j 9 i p a l n k t k F ) M t k k n / k t a d t t d F n d t t a z k l l 9 9 7 C a t t k b ) L k a k b ~ n a t d e ",
"t k n e 8 , : t : @ & : : 4 a 1 > 8 k n t 8 t y k A > 1 > ; ; ; > 8 8 5 > > > y 8 2 4 % % X p : , 4 8 t F d 8 w y k k e 8 8 1 1 ",
"t ) { b l k a n n 0 a a l l l 4 1 y R O.d y k b k R e 8 8 ; ; : : a y w 8 > 1 a l l l a p t ~ a d d b n @.n e k n k n k r t 8 1 ",
"l l z z 2 3 6 a h a h o.A n b d n l C l l l n z F R k y e k p 9 , 8 4 a b n l k n b ~ ` 9 h a a 2 3 2 H l k k l l l ] l k e k l ",
"a a 0 h & 2 & & 6 2 9 l 8 w w t t p p s a a k p h b k w 8 k 9 + % & % e t 8 d r 8 w 8 z 2 4 , , & 2 & l p 0 9 p 9 9 F M k t k k ",
"a i 9 l 6 9 , 2 & + 6 t 8 1 w r w a p 0 a a z z n b y k e A a * & % o 6 e w e e w 1 8 a % + , 2 3 7 6 l 9 p p a l k R v v y k F ",
"A C H _ F l l x z a C l a a a a b C A l l H ~ H Y K L n y M C l / F n ) R b H z l k l H h 9 s j 9 j l L k l n ) A C ] F R d l H ",
"k l R ) _ x j j l j l 9 2 2 2 - k w w 8 w d d 9 t a b k < 1 8 > z p a z ) C T u 7 9 i s a 9 2 6 2 l 8 r 8 w w A 6 9 a k L 1 1 8 ",
"y w k F O.T C x C R H * , 9 9 9 l 4 w 1 < e L n M H ) b w e t 4 H t 5 8 l Y ..j j s z ) 9 * 0 0 0 l 8 8 q < 1 R l F F R R w w t ",
"z l l s s s S a H l a n F d e e 8 t d b d e d k b k t 8 e e t L R z l x i i i x i z x a l ~ k e t 8 e y b d e t k d M d 8 w e e ",
"a p a 9 6 4 l l l 8 a k d t 8 1 > 1 t d 4 1 8 1 t e 1 ; 1 8 t t M a p l 9 9 4 a s z 9 e a b e e 8 > 1 8 k 4 4 8 8 1 l 8 > > 8 e ",
"t 0 b a 0 t z z l b l p t 9 t a 9 e A a 9 0 9 6 k l t 8 e k 9 a x k 0 a n 0 a l z l b C 0 0 e t d 9 9 l l 9 9 9 6 t k 9 4 4 t p ",
": 4 n d p 9 t 0 p l a X # $ 2 2 2 8 l t 9 9 6 0 R a A n z H 9 9 * % 4 a C a a t a p a C + + & , 9 2 6 a 0 2 % $ 2 z + % % $ & s ",
"9 6 / H z z k n C _ H 4 6 0 i p k a F l z h l x _ n n z l R j s 0 2 6 C ( H F l C C H _ 0 0 p a a a k l j 9 2 9 p T , 6 & $ + c ",
"b ~ C C H S S C T _ Y F l C ~ n d l L F Y n n F H z l a h F n b l k F H z A C S x C _ H ~ b C ] F l l F H F a l n H a k a a n F ",
"L Q 2 7 7 7 3 3 9 h a : : 2 9 , 4 e d t a t a h a l k z a k w 8 d k k 0 2 2 3 - - 3 l a e 4 t k , , 6 e a k 9 s l a k k a 0 L t ",
"Q ) n p 9 3 3 3 u C l t 8 9 y > t k l l n 0 9 l k k n t k y y y b k M z a 0 3 3 3 7 F l l k d z > 1 t t a F 4 6 k h k k t 6 F k ",
"O.%.C z C l z z x T ~ C d l F k b F ) #.R a k F H R ) n ~ R k W R { O.Y z C l l l C T L H k l H k k F F O.' a k R F F C n C / M ",
": , 4 8 n k e 8 e l b k 1 : ; ; ; ; , y 8 1 < > 8 a 4 4 , $ + 2 6 , , 4 4 l y e 1 8 d b F k g k k v k r y 8 1 1 > 1 k 1 4 4 $ # ",
"8 8 e d ) k 8 y k k k y 1 > ; ; ; % % y 8 1 < ; > p t 6 2 2 & 9 a 4 8 e y R l 8 8 g y k W v v M v v k 8 y 8 8 < ; % t 9 9 2 2 & ",
"k z n { { F l n F n Y F l t t t e t e l a l d d l A A F _ F l Y n d z n R { ~ l l F M W / M M A l l k t l d b d d k W A n ) / l ",
"& $ + l 0 9 9 9 6 4 z k 8 > w a O . O % + l 9 d 8 e e a l 6 2 - & & & + 0 p t 9 t 0 9 l n t 8 w k 8 & & 4 : k e d y e y d k a 2 ",
"* 6 2 x 9 9 7 u 9 9 l t y 8 e l % + % +   a 8 4 8 8 1 1 9 9 & * * $ 6 6 s p a 0 p p 0 n b v k y A 9 , 4 8 % t e w t e w 8 8 k , ",
"7 9 9 H 2 9 0 s z a F d l e a Y p t t , , n e e t w 8 w e 0 % 2 9 7 9 9 l 0 p p a C z A b n k e ) l t h 8 1 l t e t e 8 8 e a & ",
"H Y o.o.o.S S S S l H a 9 0 9 7 n k d d k F C s l z L M t t d e T H Y ) O.) +.x x x z z z a s p 7 z k k d d l T 3 2 9 6 F t t y ",
"9 e l A @.x j j l F n , & - 6 7 k 1 w 1 < w k t t l F k 1 8 8 : z 8 e t F ] / j s i l Y a 9 p s 0 k 8 5 1 < 1 l & + $ 2 k 8 4 8 ",
"M l F H T T ~ C S H z a k a a h k y d k t d R R ) ~ R k d k k n o.F k F H H / / x C J C h z z a l l t d k a t F n l l l b d k k ",
"p a 0 7 2 2 s 7 3 # 4 p d e > ; % 1 8 t 4 : 8 4 t 8 1 % > 1 e d n t a a 2 6 2 a p a 9 8 t n t 8 1 ; 1 8 a 8 , 8 8 1 k 8 : ; 1 8 ",
"l p a 0 6 , s u 7 2 6 i 9 1 8 5 > , t a 1 , 1 % 8 a , > w t w y n n p a t 6 9 l l x k k k l t r w 1 1 e b 8 4 8 1 ; A 8 > 5 t e ",
") ) T _ F Y / j j 3 9 l t 1 e y 8 6 Y L k b y 8 k R e 8 y k t k { _ _ Y _ R F +.T ( C z F Y y y k e 1 n ) n n b e e { k 8 e k y ",
"9 7 9 a p t / l j i 9 s s a F 0 t a k L k k t e e M e r 8 d y l F a 2 9 p a k Y ~ A z l A C A ~ t 9 8 t l t e 8 1 4 L y y 8 t t ",
", , 4 0 6 9 b t e 2 > 4 9 a j 9 e e d n a l k w 8 l 0 1 1 e k k k 9 , 6 a 9 t n d b a t t k l T 9 4 4 4 a , 4 8 ; , b a 9 5 r y ",
"F z F S F F F k l a t t d h C l F L ) { L R M k k O.n 8 y n M k M ` n R H R R L l M b k d l n +.H C M F _ n b d t y ) / t t l M ",
"6 l d 8 5 8 w 8 k n l n n b 4 l 4 4 4 6 0 a Q R F b a k a W e 1 1 8 t n 8 8 8 8 8 e F l n b F n F a , 4 , 6 6 C l l a 4 9 p M k ",
"w t e 1 , 1 5 8 e d e e t Q 8 h 3 9 6 9 9 a A d d b w w w k 8 ; > 8 w a 1 > 1 1 8 8 k 8 t e M b n j 0 6 9 2 0 C e 4 9 : @ 1 t t ",
"8 t 8 & > > 8 8 e y w > 1 8 t l 9 l k l z F d y k l e t r M t ; w e 8 a ; ; > 1 8 8 k w < 1 1 t ) x s k l l l F 8 8 e 4 ; 8 t n ",
"n n n l b n n F { O.} Q ) ] R Y ` ~ R F R _ { l n F R ) R ) ) k l n n Y l z n n M ) #.' ) ' Q R L ..x C l l x ~ k h a l F F R ) ",
"k y 8 e F ) d k M L l _ n b b k ( l k y t e a e l l a a 0 6 k k y k k w 8 l { t d k M k R l d e p C s 4 : @ O 2 2 p e 0 9 9 4 6 ",
"e w 8 y d M w r v b l L d a t a ( z l k d d l d l 8 9 9 4 & 4 k l t e 8 e d l 8 8 y k d M e 4 4 6 F z a 9 4 p l d C 8 6 9 & & & ",
"k n d t l { k k Q F W { F e a l z l S Y j j l c ` R R _ _ H / o.l k n k a d ) n k M W M ) F t t d F b H / C x H T +.) Y ) / ~ F ",
"r y 8 > t Q : > 4 e t F k 1 8 t w 1 a 0 e p l j x t t l 0 z F F y w y e > 8 F e ; 1 8 e b F 8 1 w t w d C k l C C T a t k a l F ",
"e 8 > > 8 l 1 8 8 4 8 d 8 1 > 8 w w d 6 4 4 l s s 2 9 9 l p a M t t 8 5 ; 1 e t 1 8 1 4 d t 1 > 1 8 t y l a 8 l l l 2 6 9 a p a ",
"e e w w y M d k t e k b y e 8 t e k R a t z z s x i s s x l z R L y e e 8 t k b k d e d b y y 8 e e d F z a l H a S s s j l l z ",
"a w w R R F F b R 1 < 8 w 4 l 9 9 9 & 9 ~ x j l j ..Y l 8 1 8 C & 8 8 w l ) H M n L e < 1 w 4 l 9 9 9 , & H H l l l Y O.F k w y ",
"8 1 5 L k a 9 6 A w w 8 r 8 k - 2 2 6 t s s s i i T C ) z a 0 a O , ; < k b a t 9 d y w 8 w w k - 2 2 2 9 l s s i i j ) ) R l k ",
"t n k n l n l k F ~ l l F n C C p h l F T S ~ C l c x / l l l x p 9 k l b b b b l z _ k l n F C x h a l z _ x T S x x C ..x x l ",
"% a 8 1 8 e r 8 e e o @ * $ 9 R e y k y C k a i 9 7 2 i 7 9 * 2 % + 9 9 8 8 8 t 8 e k X O & & 2 Y d y k y F l z l a p 9 x 6 9 2 ",
"2 d e e 8 w y e e a % & % + 4 l r 8 t k a 9 t i 9 i 9 9 & 4 & & 6 2 9 d 8 w w t e e l % & % # % l y 8 t v n 0 a l a p i z & 4 & ",
"0 H ) b M v k M k l 4 8 , 4 p k y t k n S l z k l l z l 3 3 6 a a a h ` L n n k n l A 8 6 1 2 9 l d e k b / l b l z k l ~ 3 2 2 ",
"t h k l l l , < 1 w t v : > ; ; 8 1 e M v k n y y ) o.b k k a l n e a a l l l 8 1 1 w w b , , ; ; 1 8 w b v k n k e n @.b b k d ",
"% % 2 & 4 k > < > 1 8 e ; ; ; ; ; > 1 k k k t 8 e d F e 8 , : e , @ & , * 2 k 1 ; < 1 8 t : ; ; ; ; > 1 y k k t w 8 d F t 8 4 , ",
"p a k h k n y t e t v Q t t 8 e y t a H F b l a l z F a k k l l z 9 a h a l l d t t e k Q k t 8 w t t t C R n l k k l F a d k k ",
"N ) 6 6 6 2 , , + + ) Q L Q b y ~ k k n n / s 9 i 9 s l Y %.{ ' W M L z : 9 , , 2 % # a ) R L M k F n k l F ~ j i i 9 i h F %.{ ",
"M Q & $ , & % & + % b n b M t r k t w a l x 9 7 3 3 7 0 d Q L } B L L 9 + & * % & + # t b n M k w k t e e n z i 7 3 3 6 9 p I L ",
"k L 6 & * * * * , , n n A y t a H y e l a C a u i i a 2 k W W N v v M a & , & 2 * * , k b F k t k C a e k a z h 7 9 i i 9 4 ' B ",
"T - & , 0 9 ..T F F H T H C C F C x l C $.@.~ H H ~ _ o./ a 9 j l l s & * 9 0 S ~ H F H H ~ z C C C F l l / | J C z x x ~ _ a p ",
"l & & & * % H 9 t t a a k t 2 0 6 & % @ ~ l p a 9 a z H h 6 , 2 i u 0 & & , % l i 9 t p a z e 9 2 0 & & + i i = 2 : & 7 p C 2 4 ",
"i 6 & , , * V 9 t t 0 p k 9 0 a 3 - $ & H a p a a d a H a 4 4 i 9 3 s , & 2 & l 0 0 t e 0 n 9 0 0 9 & = & a p 7 2 2 2 3 f H 4 , "
};
