/* XPM */
static char *e60a02610be74cf7df461ccb4546b138TG8hOlzRKHoYTArk[] = {
/* columns rows colors chars-per-pixel */
"64 64 124 2 ",
"   c black",
".  c #0C0B0B",
"X  c #272624",
"o  c #33322E",
"O  c #333230",
"+  c #3B3934",
"@  c #413E3A",
"#  c #45433F",
"$  c #454442",
"%  c #4A4642",
"&  c #4C4A46",
"*  c #4D4B49",
"=  c #524E4A",
"-  c #54524C",
";  c #58544F",
":  c #565553",
">  c #595652",
",  c #5C5955",
"<  c #5C5C59",
"1  c #605C56",
"2  c #625F5A",
"3  c #64625C",
"4  c #69655E",
"5  c #666461",
"6  c #6A6661",
"7  c #6D6A65",
"8  c #6E6C69",
"9  c #716D66",
"0  c #716E69",
"q  c #757067",
"w  c #75716B",
"e  c #7A746D",
"r  c #7C786F",
"t  c #777570",
"y  c #7B7771",
"u  c #777872",
"i  c #7E7A74",
"p  c #827D75",
"a  c #837E79",
"s  c #897F78",
"d  c #858077",
"f  c #85827B",
"g  c #8A857C",
"h  c #8D887F",
"j  c #928B7E",
"k  c #858582",
"l  c #8B8781",
"z  c #878882",
"x  c #8C8A84",
"c  c #888788",
"v  c #8D8D8A",
"b  c #938D84",
"n  c #9A8D81",
"m  c #928E8A",
"M  c #8F908B",
"N  c #969086",
"B  c #9A9286",
"V  c #94928C",
"C  c #9B958C",
"Z  c #9D988E",
"A  c #908F90",
"S  c #959491",
"D  c #9A9691",
"F  c #979892",
"G  c #9D9A94",
"H  c #9E9D99",
"J  c #A1978B",
"K  c #A29A8D",
"L  c #A19790",
"P  c #A39D94",
"I  c #A89E93",
"U  c #A29E99",
"Y  c #9FA09A",
"T  c #A6A196",
"R  c #AAA296",
"E  c #A5A29B",
"W  c #AAA49C",
"Q  c #ADA89E",
"!  c #B0A79D",
"~  c #B1A99E",
"^  c #A6A6A2",
"/  c #ABA6A1",
"(  c #ADA9A2",
")  c #ADADA9",
"_  c #B2ACA4",
"`  c #B6AFA7",
"'  c #B8AEA6",
"]  c #B0ACAA",
"[  c #B4AFA9",
"{  c #B2AEAC",
"}  c #B6B1A6",
"|  c #B6B1A7",
" . c #B9B1A6",
".. c #BAB4A7",
"X. c #B5B0A8",
"o. c #B7B1A9",
"O. c #B7B3AA",
"+. c #B3B0AC",
"@. c #B7B2AC",
"#. c #BAB2AB",
"$. c #BBB4AA",
"%. c #BBB3AC",
"&. c #BAB4AE",
"*. c #BEB5AE",
"=. c #BEB9AD",
"-. c #BBB7B2",
";. c #BDB7B0",
":. c #BDB9B2",
">. c #BBB8B4",
",. c #BFBCB7",
"<. c #C0B6AB",
"1. c #C0B7AF",
"2. c #C1B9AF",
"3. c #C1BAAE",
"4. c #C1BAB2",
"5. c #C3BCB3",
"6. c #C5BCB1",
"7. c #C7BEB7",
"8. c #C2BDB9",
"9. c #C4BFB9",
"0. c #C9C0B7",
"q. c #C4C0BB",
"w. c #C5C0BC",
"e. c #C9C3B9",
/* pixels */
"                                                                                                                                ",
"  @ p e e w w e e p e < 2 3 9 4 9 8 y w w 0 9 q e 2 3 3 3 9 9 9 4 3 6 e i e w 9 w 0 e p < 2 3 7 9 6 0 w e w 0 w 9 p 2 3 3 3 +   ",
"  3 2.*.#.&.o.&.4.7.4.W W _ _ _ _ Q $.` ` _ _ #._ Z C l g I W W R Z P $.1.#.| ` #.&.4.6.Q W ! _ _ / _ _  .` _ o.2.e.U W N g -   ",
"  w N Z P P P K R Q U E D U _ E G E _ / / C G G P Z G Z / ] ^ ^ ) { +.E b P I I K I _ U W D P ` U G H ( ( _ C T E E T E U G 8   ",
"  7 P B N n n B K Q / D G G E S E ( ( o._ P P W E W U Z W { ] ] >.] @.U Z N n n B C ! W U S G W F G ( / _ :.U P W E W Q P B 0   ",
"  t _ T K C K K R #._ W E / ( Y ( _ @.8._ N N U U P W Z o.+.( +.-.,.w.| W I C K C I ../ / E E #.H / @.] -.q.C N W E E W T C 0   ",
"  8 _ P U G P W R C K P U W / E G E _ &.( G E E / $.E G U U G G U _ / U G G U Q E W W C C N _ U G G E / &.] E U E Q #./ U G 3   ",
"  5 / D V x l G l a g l l b U v z V E / G V G H E _ z v z k z k z V V M z z z H V b b f f y P l x m V G _ U V S G E E D V V :   ",
"  w :./ W E U / / Z U U W W W m v H o.5.U H E / E o.D V V k k l l U H S V z v U W W W U P G #.P U U / / 7./ D E / E / E F G <   ",
"  3 Q Q n n N P T P T 4._ / / U / W _ W W W / Q _ o.E H D E P C l V m U / / W E / / #.=.C T P P b n b ` W E E W W W ;.W E D 3   ",
"  2 Z T g b g g N b B W V S S G G K P I P U E P T / E S V E C p f g f D G V U F S S S Q b b l l g b g W P Z C P Z C _ ( E G 3   ",
"  1 C W N C l b g p N G V v S F V P P Z U U Q Q / / H E D _ U h g f u N D S D D S v V U f p l b n N N W B L P U W E o.^ ^ H 2   ",
"  6 ` *._ W W ! Q U _ W P U U U / _ _ W W ` #.` | [ [ / H ( _ W $._ / &.o./ ` Q W E W ` T C I R C R W [ E W / &._ _ ;._ o.U 3   ",
"  3 o.&.*.! R R W R W C b b b j E S S V S U U C G U / E c v V z Q P U Q &._  .J B C K I P C b N b W V F V S S _ N C U E ] v :   ",
"  < E _ 5. ._ ! _ o.` h l B C C W m S v c D ] / ( ` &./ S D G m ` G M V W | 2.R R I Q &.C h Z Z Z W V V A c v o.W _ _ o.o.S <   ",
"  4 W I I I _ U ` W U / _ U D D V G U / U D U E / E G V D D G [ o.Q W ! K K K ! K Q ! P W #.E D G V D H / U D G E U ( U V S <   ",
"  2 U C N b W W W V U E U G V v z v G U m v V v G D v k v V G G ( U P W B C b U I Q C D U Q D S V z v V E m m V V v W V z z ,   ",
"  1 / U Z G Q Q W / W P G C G P C D _ P C Z C N E W G V D E C T ! E Z U / Z P W Q W / _ Z Z Z G U C C W W C C C N G E C m b <   ",
"  ; / U P C G Z P W P y d f b b b V W G C C N Z o.U _ / Q ` B C h f b U _ U P G P P U _ p p g l B b N U Z b f f b Q p f f f -   ",
"  < $.` Q Q W / _ *.` b N Z K P E U _ W Q T W ! *./ / Q W o.R T Z b N _ %._ _ W _ _ ` *.Z Z P U U U E W R C b C P  .l b g f &   ",
"  9 _ _ ` _ _ _  .$.| _ W _ #./ U W [ _ | / / _ ` Q b f g N N b x l N C m C Q _ ! _ *.` #./ _ ;._ W W _ ` _ U W / ` U E U U 6   ",
"  0 b N N N n n C T U l l b C x m D U G U G P T U W .                       9 j j n W U D m G E x l N D U E C I W U E E U Z 8   ",
"  0 / P C n n n J _ W G V C H z G E W W / Z C W E E .                       9 n n B ~ W W E U Q z v G G U _ b N E T E E G N 8   ",
"  t _ Q _ W Q Q !  .#._ U W _ E / _ &.8.o.U E _ ` o..     X $ * & & * & % & b W W !  .[ ` E W ` E E _ _ 8.&.G T o._ _ _ / _ 0   ",
"  : m V / E D V D W / E v l k k k k x H V v c z V U .     % p b N l x m m W H D v V U / _ E Y E E ^ E F H V v v z v E b b b =   ",
"  , D U &.E V H E E E H v z k k k f f H V v c k z P .     & g C U m V D H o.W V V Y H E +.^ ^ ( ^ ^ E V H V V c k f G C B b ;   ",
"  6 / :.:._ W / _ / | _ W P G G D G D W U W U U W _ .     > W | / U Q / o.:.#.W W ] ( +.$.( ( _ W W E G W U / U U E +._ / &.w   ",
"  = p W Z B C C N b Q E V z S P i r i f p W C U V D .     # b j h g g p Z P G C G Z C W / G V S E V g f b l E D U H D H U E 7   ",
"  > b ! C C N J C B W G G V D W f p f p e U V m V V .     o 2 4 3 1 4 4 w h P Z P P Z / / ^ E H _ C l b V f G D S G D S V V 7   ",
"  , C ` b B Z I Q U _ U W D U | P G G l x / D D G S .                     - P P U _ W _ / / E D &.W G T V v W G D G D V V D 6   ",
"  7 4.4.4._ _ _ _ W ` P C Z B N / E U U E _ _ I W Q .                     6 6.! ! ! Q Q Q U I P N Q E E U U W  .n b B N _ G <   ",
"  < W _ 7.! R R W _ / l g j N N E v S v c S E G G W .     O 2 : 7 < 2 3 9 P $.R K K W | U C P I Z E V M v c v W g p f b E V :   ",
"  6 _ `  . .#._ _ ` Q P E U P T E H U E G U o.o.&.#..     : E / 4._ E _ ` ` ..$.! _ ` _ T Q Q U W W G U E U G _ / W W W / U 3   ",
"  2 Z N b b I N n d b P U D z k f v V G m l V m G V .     & D U / G P U b N b U P U C V G / G V v k v V U V x V V v E V l k :   ",
"  2 P Z N l I J B b N K C v V M z x G U v x v f V U .     - S H / / P P G N C W W ! E E T W G F S v v D / V m V v k _ V z M <   ",
"  0  .*._ | $.R R n B W G v D H V N | [ E / H V E o..     : G E :.*.*.| *.o._ 6. .#._ W _ | H H E D v / &./ / / D D :.E V D 3   ",
"  , B U P G $.W R K C I I U _ Z G P E ] E E G D D ( .     # y p g y q e y y D | #._ Q W _ _ _ #.G C V G W G D V v m [ H G V <   ",
"  : b Z N C / G L b z m C P R C D D U / U W E S V W .                       t / U / P G G E W  .C m m m U x m V k x / U C M ,   ",
"  6 _ _ _ _ _ E W U G G U T _ W _ [ &.:.[ @.( E E 5..                       l [ W ( / E U W / 6.` _ ( _ *./ / U G H &.$.G G 4   ",
"  6 U V M V S V E / W / / / m W b b b N Z U @.o._ / = = = - & $ $ $ * - % $ f V V D _ W / / _ / _ U l b x N N _ W W U m C P 3   ",
"  3 D v x v M V D U D D G @.V T n C N B B P _ U U W S S S E V k z V S U M z v v V V E V G D ( / / R Z N B b Z _ D m V l a v <   ",
"  2 V f z z V S D H S z v V G W C W E W Q _ U H E W D G F ( G k S D V P f z z v V V E S c v v G &.! I T U W W _ V V D m k V <   ",
"  6 / W / / / _ :.8.-.@.&.;.o.| =.#.o._ o.*.:.W / _ o.&.o.&.&.W W / / o.W Q / / ( &.9.-.&.-.@.o.[ 2.! _ W W ! #.E T U W _ _ 7   ",
"  < V D _ &.U E ( ] W *./ / / E %.W E H G D U D W W U U Z N E E H E E S V W :.G U E ( E o.W U D P _ I m l a i b b P D Z C B >   ",
"  , V H U ( S D ^ / W ] U P G U %.Q W E U U W U W V C C b h m E W G D V D U W V V G E U ( D m b N _ Q U C m P W U _ V N C h -   ",
"  6 U G W :.E E @._ o.:._ D P W Q W _ | R R W ~ =.o.o.*.*.` $.4.W E / E U U &./ E ( +.( &._ G G U _ / ` $._ ! `  .6.&.| &.$.9   ",
"  < V z G @.l z m D G _ E v V G S v U Z D P W R ! G G W Z Q _ _ H S G D c V _ D k v V D / _ V v S G S U _ E W _ _  .U G E P 3   ",
"  , z z V E v V V m V U V v z V S S U N b b W I I b B C W P U ( G G V M k v D G v V v m U G v z v V G H W U V W W W b N C U 2   ",
"  < S V H ( U E G D E / H D V G D E o.U G Q Q I ! K I I ! W Q o.[ H D D V G E / E U D U / H H V D D U _ Q U W ` U _ I I R W 4   ",
"  < S o.o._ _ W o.v c V S m W C B B g B #._ R W R 2.| W V v V _ g V V S W &.` ( / ] D c v S m W C C B l h ` ` W R W | 5._ E <   ",
"  : M ] E U C N _ S S V F V E j b b N G I I I K K  ._ &.Q P Z U i x z c E / U G C U U S V S S E j b b b B W I I K K R &.&.o.3   ",
"  7 E / / / W E _ #.W W _ / _ _ P T W _  ._ #._ W _ ! $.! W W ! P D E W / / / / W Q *.E W / _ _ ! T P W Q *.!  ._ ! ! _ 2.! 4   ",
"  6 V v V D F V D D u a h f C o.D H E H _ E U K C N b K N C h b f p C C V V V G V D E t i g g b | U G E H _ W Q W U P B ! N >   ",
"  7 D D S S H D D U f g f p b W F V G E U B G K B K B C g b g g N b C U V S S G D D W f g f d f W H V G ^ / G U W P P K Q g >   ",
"  w &./ ( ^ E / E W m V l b P E H G E / _ W Q E W W Q W n n N U U P T =._ / / E / W _ V N v b B W U D E / $.W / W Q E W #.n >   ",
"  3 E W W W x c v S G ^ l z z k V v D ( ^ E / H H &.4./ E E U W / D U U W W W V v v S S / x x z k v V S / ^ E / E D / 7./ / 3   ",
"  = b h b E z c z v V D k k z k k z v E E E G V D U _ D V x l D l a g l l b E v k c v V G l k k k k z v H E E G S V U _ G V >   ",
"  2 E T E / H G D G ^ @.H G V D H G U ` _ / W U W Q _ U E E W W Q C U T U W W U G G D E @.E G V S G G G _ o./ W E E W _ U U 4   ",
"  w N N N b l x p p &.@.] @.W H #.E E / / $.I C K C I W | q.,.-.+.( ] Q l C l l b f d U &.o.] ( E _ / E W _ #.R K K C K T _ t   ",
"  0 g f l g f g p f / / / ( G F E G S U W ! C B n n N Z U @.] -.] ] ] C p g h f g p d G / / ( E S E G D D / Q K B n n B B P 8   ",
"  7 N h h h h h l l / / ( H G U ` H D W U _ P J K K P b E +.+.) ^ ^ ( U h l h b h h l E / _ E G E _ U D E U Q T B C K K C m 0   ",
"  - g l Z B 2. ._ _ `  .` _ _ _ _ ! W _ 0.7.#.` ` #.*.4.$.P C R W W I g h C Z _ #.` _ ` ` #.Q _ _ _ _ W W $.<.' _ Q ! ! #.*.3   ",
"  # w w w 9 N p f f g h l f y p y w 9 7 Z b s f p g b N h y w e d p p q w w 9 l f p f f g b a p r p w 9 7 f s w e w w p f b %   ",
"                                                                                                                                "
};
