/* XPM */
static char *_50cfed72a99474d8beae524856ee59b5LSq8J6Xq1KV6Jtm[] = {
/* columns rows colors chars-per-pixel */
"64 64 147 2 ",
"   c #7A756E",
".  c #7C786F",
"X  c #7B7771",
"o  c #777872",
"O  c #7E7A73",
"+  c #827D75",
"@  c #837E79",
"#  c #848077",
"$  c #8A8076",
"%  c #85827B",
"&  c #8B857D",
"*  c #8D887F",
"=  c #91877D",
"-  c #928A7F",
";  c #858582",
":  c #8B8781",
">  c #878882",
",  c #8C8A84",
"<  c #888788",
"1  c #8D8D8A",
"2  c #938D84",
"3  c #9A8E83",
"4  c #928E8A",
"5  c #8F908B",
"6  c #969186",
"7  c #9A9286",
"8  c #94928C",
"9  c #9B958C",
"0  c #9D988E",
"q  c #908F90",
"w  c #959491",
"e  c #9A9691",
"r  c #979892",
"t  c #9C9A94",
"y  c #9E9D99",
"u  c #A0968A",
"i  c #A29A8E",
"p  c #A19790",
"a  c #A39C94",
"s  c #A89F94",
"d  c #A29E99",
"f  c #A89F98",
"g  c #9FA09A",
"h  c #A6A096",
"j  c #AAA296",
"k  c #A5A29B",
"l  c #AAA49C",
"z  c #ADA89E",
"x  c #B0A79D",
"c  c #B1A99E",
"v  c #A6A6A2",
"b  c #ABA6A1",
"n  c #AFA9A0",
"m  c #AEA9A2",
"M  c #ADA9A0",
"N  c #ADA9A4",
"B  c #AEA9A4",
"V  c #AEABA5",
"C  c #AFAAA4",
"Z  c #ADA9A2",
"A  c #ABABA8",
"S  c #AEACA9",
"D  c #AFAFAA",
"F  c #ADACA9",
"G  c #B0A7A0",
"H  c #B0A8A1",
"J  c #B1AAA1",
"K  c #B2ABA0",
"L  c #B3ABA0",
"P  c #B1A9A2",
"I  c #B1AAA3",
"U  c #B4AAA2",
"Y  c #B4ABA3",
"T  c #B3ACA1",
"R  c #B3ADA3",
"E  c #B4ACA2",
"W  c #B4ADA3",
"Q  c #B1ADA4",
"!  c #B2ADA4",
"~  c #B3AEA5",
"^  c #B1ADA7",
"/  c #B2ADA7",
"(  c #B3AFA6",
")  c #B3AFA7",
"_  c #B4ACA4",
"`  c #B4ADA4",
"'  c #B4AEA5",
"]  c #B6AFA4",
"[  c #B4ACA6",
"{  c #B4AEA6",
"}  c #B6AEA7",
"|  c #B6AFA7",
" . c #B2ACA4",
".. c #B8AEA6",
"X. c #B1ACA8",
"o. c #B0ACAA",
"O. c #B1AFAB",
"+. c #B3AEAA",
"@. c #B2AFAB",
"#. c #B1AFAC",
"$. c #B2AEAC",
"%. c #B4AFAC",
"&. c #B3AFA9",
"*. c #B6B0A7",
"=. c #B6B0A6",
"-. c #B8B1A7",
";. c #BBB2A6",
":. c #B9B1A6",
">. c #B7B1A9",
",. c #B5B0AA",
"<. c #B7B3AA",
"1. c #B3B0AE",
"2. c #B6B2AD",
"3. c #B4B0AE",
"4. c #B5B1AA",
"5. c #B8B1A9",
"6. c #BBB3A8",
"7. c #BAB1AA",
"8. c #BAB2AB",
"9. c #BBB4A9",
"0. c #BBB4AA",
"q. c #BBB3AC",
"w. c #BAB5AC",
"e. c #BAB4AE",
"r. c #BEB5AE",
"t. c #BAB4AC",
"y. c #BEB9AD",
"u. c #BAB6B2",
"i. c #BCB6B1",
"p. c #BDB9B2",
"a. c #BBB8B4",
"s. c #BEB9B3",
"d. c #C0B7AF",
"f. c #C0B6AB",
"g. c #C0B9AF",
"h. c #C1B9AF",
"j. c #C1BAAE",
"k. c #C2B9B0",
"l. c #C1BAB2",
"z. c #C3BAB3",
"x. c #C5BCB1",
"c. c #C7BEB7",
"v. c #C3BCB3",
"b. c #C3BEB9",
"n. c #C9C0B7",
"m. c #C5C1BB",
"M. c #C9C3B9",
/* pixels */
", 4 { l p a k l l z s & = & 9 u 0 9 M 0 e t 0 0 l & 2 & , s 3 9 i 4 4 a { p a a d k l U & $ - 3 p 0 9 k a 0 t t 9 K : 2 , & 6 i ",
"4 2 W l l a a k l U l @ & & 0 2 9 9 z a p t 9 i l % , & & 0 u i 2 , 4 h K a p 9 a p l W + % & 6 0 2 t k s a t t 9 { % * & & & l ",
"p a h.r.8.e.>.e.l.c.l.l l W K K K z 0.{ { ! ! 8.W 0 9 , & s l l j 0 a 0.d.8.*.{ 8.e.l.x.z l x K  .M K ! :.{ ! >.h.M.a l 6 & * :.",
"S u.6 0 p a p i j z d k e a K k t k ! b M 9 t t p 0 t 0 M @.v v A #.1.k 2 p s s i s  .a l e t { d t y V V ! 9 h k k h k a t @.y ",
"@.%.p 9 7 3 3 7 i z M e t t k w k V V >.! p p l k l a 0 l @.@.S a.@.2.d 0 9 3 3 7 9 x l a w t l r t V M ! p.a p l k l z p 9 2.t ",
"s.m. .h i 9 i i j 8.! l k M V g V ! 2.b.! 6 6 a a a l 0 *.1.N 1.u.s.m.>.l s 9 i 9 s 6.M M k k 8.y b 2.@.u.m.9 6 l k k l h 9 ! y ",
"! >.! a a t p l j 9 i p a l M k t k ! e.V t k k M 0.k t a d t t d ! M d t t a z k l l 9 9 7 K a t t k b e.@.k a k b 8.M a t d e ",
"t k M e 8 , : t : @ & : : 4 a 1 > 8 k M t 8 t y k Y > 1 > ; > ; > 8 8 5 > > > y 8 2 4 % % O p : , 4 8 t ! d 8 w y k k e 8 8 1 1 ",
"t e.p.b l k a M M 0 a a l l l 4 1 y >.v.d y k b k >.e 8 8 ; ; : : a y w 8 > 1 a l l l a p t 8.a d d b M c.M e k M k M k r t 8 1 ",
"l l z z 2 3 6 a h a h l.Y M b d M l K l l l M z ! >.k y e k p 9 , 8 4 a b M l k M b 8.y.9 h a a 2 3 2 { l k k l l l i.l k e k l ",
"a a 0 h & 2 & & 6 2 9 l 8 w w t t p p s a a k p h b k w 8 k 9 + % & % e t 8 d r 8 w 8 z 2 4 , , & 2 & l p 0 9 p 0 9 ! A k t k k ",
"a i 9 l 6 9 , 2 & + 6 t 8 1 w r w a p 0 a a z z M b y k e Y a * & % o 6 e w e e w 1 8 a % + , 2 3 7 6 l 9 p p a l k <.v v y k ! ",
"Y K { r. .l l x z a K l a a a a b K Y l l { 8.{ *.&.&.M y V K l 0.! M e.>.b { z l k l { h 9 s j 9 j l &.k l M e.U K i.! >.d b { ",
"k l >.e.r.x j j l j l 9 2 2 2 - k w w 8 w d d 9 t a b k < 1 8 > z p a z e.K :.u 7 9 i s a 9 2 6 2 l 8 r 8 w w Y 6 9 a k ! 1 1 8 ",
"y w k  .v.:.K x K >.{ * , 9 9 9 l 4 w 1 < e @.M V { e.b w e t 4 { t 5 8 l *.j.j j s z e.9 * 0 0 0 l 8 8 q < 1 >.l ! ! >.>.w w t ",
"z l l s s s W a { l a M ! d e e 8 t d b d e d k b k t 8 e e t &.>.z l x i i i x i z x a l 8.k e t 8 e y b d e t k d V d 8 w e e ",
"a p a 9 6 4 l l l 8 a k d t 8 1 > 1 t d 4 1 8 1 t e 1 ; 1 8 t t V a p l 9 9 4 a s z 9 e a b e e 8 > 1 8 k 4 4 8 8 1 l 8 > > 8 e ",
"t 0 b a 0 t z z l b l p t 9 t a 9 e Y a 9 0 9 6 k l t 8 e k 9 a x k 0 a M 0 a l z l b K 0 0 e t d 9 9 l l 9 9 9 6 t k 0 4 4 t p ",
": 4 M d p 9 t 0 p l a O # $ 2 2 2 8 l t 9 9 6 0 >.a Y M z { 9 9 * % 4 a K a a t a p a K + + & , 9 2 6 a 0 2 % $ 2 z + % % $ & s ",
"9 6 0.{ z z k M K r.{ 4 6 0 i p k a ! l z h l x r.M M z l >.j s 0 2 6 K q._ ! l K K { r.0 0 p a a a k l j 9 2 9 p :., 4 & $ @ c ",
"b 8.K K { W W K :.r.*.! l K 8.M d l &.! *.M M ! { z l a h ! M b l k  .{ z U K W x K r.{ 8.b K i.! l l ! { ! a l M { a k a a M ! ",
"@.2.2 7 7 7 3 3 9 h a : : 2 9 , 4 e d t a t a h a l k z a k w 8 d k k 0 2 2 3 - - 3 l a e 4 t k , , 6 e a k 9 s l a k k a 0 @.t ",
"2.e.M p 9 3 3 3 u K l t 8 9 y > t k l l M 0 9 l k k M t k y y y b k V z a 0 3 3 3 7  .l l k d z > 1 t t a ! 4 6 k h k k t 6 ! k ",
"v.m.K z K l z z x :.8.K d l  .k b ! e.b.>.a k ! { >.e.M 8.>.k 1.<.p.v.=.z K l l l K :.&.{ k l { k k ! ! v.u.a k >.! ! K M K 0.V ",
": , 4 8 M k e 8 e l b k 1 : ; ; ; ; , y 8 1 < > 8 a 4 2 O O   + + + O + % l y e 1 8 d b ! k g k k v k r y 8 1 1 > 1 k 1 4 4 $ # ",
"8 8 e d e.k 8 y k k k y 1 > ; ; ; % % y 8 1 < ; > p t 4                 % >.l 8 8 g y k 1.v v N v v k 8 y 8 8 < ; % t 9 9 2 2 & ",
"k z M p.p.! l M ! M *.! l t t t e t e l a l d d l Y Y M       O O X O O 4 p.8.l l ! V 1.0.V V Y l l k t l d b d d k 1.Y M e.0.l ",
"& $ + l 0 9 9 9 6 4 z k 8 > w a O . O % + l 9 d 8 e e t       & & & & + 0 p t 9 t 0 9 l M t 8 w k 8 & % 4 : k e d y e y d k a 2 ",
"* 6 2 x 9 9 7 u 9 9 l t y 8 e l % + % +   a 8 4 8 8 1 1       & * $ 6 6 s p a 0 p p 0 M b v k y Y 9 , 4 8 % t e w t e w 8 8 k , ",
"7 9 9 { 2 9 0 s z a ! d l e a *.p t t , , M e e t w 8 8       , 9 7 9 9 l 0 p p a K z Y b M k e e.l t h 8 1 l t e t e 8 8 e a & ",
"{ *.l.l.l.W W W W l { a 9 0 9 7 M k d d k ! K s l z &.b       @ & & & & ! e.x.x x x z z z a s p 7 z k k d d l :.3 2 9 6 ! t t y ",
"9 e l Y c.x j j l  .M , & - 6 7 k 1 w 1 < w k t t l ! k                 p i.0.j s i l *.a 9 p s 0 k 8 5 1 < 1 l & @ $ 2 k 8 4 8 ",
"V l  .{ :.:.8.K W { z a k a a h k y d k t d >.>.e.8.>.d       O + O O O a { 6.0.x K ..K h z z a l l t d k a t ! M l l l b d k k ",
"p a 0 7 2 2 s 7 3 # 4 p d e > ; % 1 8 t 4 : 8 4 t 8 1 %       t M t a a 2 6 2 a p a 9 8 t M t 8 1 ; 1 8 a 8 , 8 8 1 k 8 : ; 1 8 ",
"l p a 0 6 , s u 7 2 6 i 9 1 8 5 > , t a 1 , 1 % 8 a , ;       e M M p a t 6 9 l l x k k k l t r w 1 1 e b 8 4 8 1 ; Y 8 > 5 t e ",
"e.e.:.r.! *.0.j j 3 9 l t 1 e y 8 6 *.&.k b y 8 k >.e 8       y p.r.r.*.r.>.! x.:.q.K z ! *.y y k e 1 M e.M M b e e p.k 8 e k y ",
"9 7 9 a p t 0.l j i 9 s s a  .0 t a k @.k k t e e V e 8       9 l 0 2 9 0 a k *.8.Y z l Y K U 8.t 9 8 t l t e 8 1 4 &.y y 8 t t ",
", , 4 0 6 9 b t e 2 > 4 9 a j 9 e e d M a l k w 8 l 0 >                 % 9 t M d b a t t k l :.9 4 4 4 a , 4 8 ; , b a 9 5 r y ",
"! z ! W ! ! ! k l a t t d h K l ! &.e.p.&.>.V k k v.M 6                 & >.>.&.l V b k d l M x.{ K V ! r.M b d t y e.0.t t l V ",
"6 l d 8 5 8 w 8 k M l M M b 4 l 4 4 4 6 0 a 2.>. .b a a , 4 % O + % : , : 8 8 8 8 e ! l M b ! M ! a , 4 , 6 6 K l l a 4 9 p V k ",
"w t e 1 , 1 5 8 e d e e t 2.8 h 3 9 6 9 9 a Y d a b w w w k 8 ; > 8 w a 1 > 1 1 8 8 k 8 t e V b M j 0 6 9 2 0 K e 4 8 : @ 1 t t ",
"8 t 8 % > > 8 8 e y w > 1 8 t l 9 l k l z  .d y k l e t r V t ; w e 8 p ; > > 1 8 8 k w < 1 1 t e.x s k l l l ! 8 8 e 4 ; 8 y M ",
"M M M l b M M ! p.v.a.2.e.i.>.*.y.8.>.! >.r.p.l M ! >.e.>.e.e.k l M M ! l z M M V e.b.u.e.u.2.>.&.h.x K l l x 8.k h a l  .! <.e.",
"k y 8 e ! e.d k V @.l r.M b b k q.l k y t e a e l l a a 0 6 k k y k k w 8 l p.t d k V k >.l d e p K s 4 : @ O 2 2 p e 0 9 9 4 6 ",
"e w 8 y d V w r v b l @.d a t a q.z l k d d l d l 8 9 9 4 & 4 k l t t 8 e d l 8 8 y k d V e 4 4 6  .z a 9 4 p l d K 8 6 9 & & & ",
"k M d t l p.k k 2.! 1.p. .e a l z l W *.j j l c y.>.>.r.r.{ 0.l.l k M k a d e.M k V 1.V e.! t t d ! b { 0.K x { :.x.e.*.e.0.8. .",
"r y 8 , t 2.: > 4 e t ! k 1 8 t w 1 a 0 e p l j x t t l 0 z ! ! y w y e > 8 ! e ; 1 8 e b ! 8 1 w t w d K k l K K :.a t k a l  .",
"e 8 > > 8 l 1 8 8 4 8 d 8 1 > 8 w w d 6 4 4 l s s 2 9 9 l p a V t t 8 5 ; 1 e t 1 8 1 4 d t 1 > 1 8 t y l a 8 l l l 2 6 9 a p a ",
"e e w w y V d k t e k b y e 8 t e k >.a t z z s x i s s x l z >.&.y e e 8 t k b k d e d b y y 8 e e d ! z a l { a W s s j l l z ",
"a w w >.>.! ! b >.1 < 8 w 4 l 9 9 9 & 9 8.x j l j j.*.l 8 1 8 K & 8 8 w l e.{ V M @.e < 1 w 4 l 9 9 9 , & { { l l l =.v.! k w y ",
"8 1 5 @.k a 9 6 Y w w 8 r 8 k - 2 2 6 t s s s i i :.K e.z a 0 a O , > < k b a t 9 d y w 8 w w k - 2 2 2 9 l s s i i j e.e.>.l k ",
"t M k M l M l k ! 8.l l ! M K K p h l ! :.W 8.K l c x 0.l l l x p 9 k l b b b b l z r.k l M ! K x h a l z r.x :.W x x K h.x x l ",
"% a 8 1 8 e r 8 e e o @ * $ 9 >.e y k y K k a i 9 7 2 i 7 9 * 2 % + 9 9 8 8 8 t 8 e k o O & & 2 =.d y k y ! l z l a p 9 x 6 9 2 ",
"2 d e e 8 w y e e a % & % + 4 l r 8 t k a 9 t i 9 i 9 9 & 4 & & 6 2 9 d 8 w w y e e l % & % # % l y 8 t v M 0 a l a p i z & 4 & ",
"0 { e.b V v k V k l 4 8 , 4 p k y t k M W l z k l l z l 3 3 6 a a a h y.! M M k M l Y 8 6 1 2 9 l d e k b 0.l b l z k l 8.3 2 2 ",
"t h k l l l , < 1 w t v : > > ; 8 1 e V v k M y y e.l.b k k a l M e a a l l l 8 1 1 w w b , , > ; 1 8 w b v k M k e M c.b b k d ",
"% % 2 & 4 k > < > 1 8 e ; ; > ; ; > 1 k k k t 8 e d ! e 8 , : e , @ & , * 2 k 1 ; < 1 8 t : ; ; ; ; > 1 y k k t w 8 d ! t 8 4 , ",
"p a k h k M y t e t v 2.t t 8 e y t a { ! b l a l z  .a k k l l z 9 a h a l l d t t e k 2.k t 8 w t t t K >.M l k k l ! a d k k ",
"A e.6 6 6 2 , , + + e.2.@.2.b y 8.k k M M 0.s 9 i 9 s l *.m.s.u.1.N @.z & 9 , , 2 % # a e.>.@.V k ! M k l ! 8.j i i 9 i h  .m.s.",
"V 2.& $ , & % & + % b M b N t r k t w a l x 9 7 3 3 7 0 d 2.@.a.S @.@.9 @ & * % & @ # t b M V k w k t e e M z i 7 3 3 6 9 p %.&.",
"k @.6 & * * * * , , M M Y y t a { y e l a K a u i i a 2 k 1.1.A v v N a & , & 2 * * , k b ! k t k K a e k a z h 7 9 i i 9 4 u.S ",
":.- & , 0 9 h.:.!  .{ :.{ K K  .K x l K n.c.8.{ { 8.r.l.0.a 9 j l l s & * 9 0 W 8.{  .{ { 8.z K K K  .l l 0.f...K z x x 8.r.a p ",
"l & & & * % { 9 t t a a k t 2 0 6 & % @ 8.l p a 9 a z { h 6 , 2 i u 0 & & , % l i 9 t p a z e 9 2 0 & & + i i = 2 : & 7 p K 2 4 ",
"i 6 & , , * G 9 t t 0 p k 9 0 a 3 - $ & _ a p a a d a { a 4 4 i 9 3 s , & 2 & l 0 0 t e 0 M 9 0 0 9 & = & a p 7 2 2 2 3 f { 4 , "
};
