/* XPM */
static char *_122d4de94724111cc5a94187fac5381Gj3KfJWmamuyz8M6[] = {
/* columns rows colors chars-per-pixel */
"64 64 147 2 ",
"   c #7A756E",
".  c #7C786F",
"X  c #7B7771",
"o  c #777872",
"O  c #7E7A74",
"+  c #7F7F78",
"@  c #827D75",
"#  c #837E79",
"$  c #848077",
"%  c #8A8076",
"&  c #85827A",
"*  c #8B857C",
"=  c #8D887F",
"-  c #91877D",
";  c #928A7F",
":  c #858582",
">  c #8B8781",
",  c #878882",
"<  c #8C8A84",
"1  c #888788",
"2  c #8D8D8A",
"3  c #938D84",
"4  c #9A8E83",
"5  c #928E8A",
"6  c #8F908B",
"7  c #969186",
"8  c #9A9286",
"9  c #94928C",
"0  c #9B958C",
"q  c #9D988E",
"w  c #908F90",
"e  c #959491",
"r  c #9A9691",
"t  c #979892",
"y  c #9C9A94",
"u  c #9E9D99",
"i  c #A0968A",
"p  c #A29A8E",
"a  c #A19790",
"s  c #A39C94",
"d  c #A89F94",
"f  c #A29E99",
"g  c #A89F98",
"h  c #9FA09A",
"j  c #A6A096",
"k  c #AAA296",
"l  c #A5A29B",
"z  c #AAA49C",
"x  c #ADA89E",
"c  c #B0A79D",
"v  c #B1A99E",
"b  c #A6A6A2",
"n  c #ABA6A1",
"m  c #AFA9A0",
"M  c #AEA9A2",
"N  c #ADA9A0",
"B  c #ADA9A4",
"V  c #AEA9A4",
"C  c #AFABA5",
"Z  c #ADA9A2",
"A  c #ABABA8",
"S  c #AEACA9",
"D  c #AFAFAA",
"F  c #ADACA9",
"G  c #B0A7A0",
"H  c #B0A8A1",
"J  c #B1AAA1",
"K  c #B2ABA0",
"L  c #B3ABA0",
"P  c #B1A9A2",
"I  c #B1AAA3",
"U  c #B4AAA2",
"Y  c #B4ABA3",
"T  c #B3ACA1",
"R  c #B3ADA3",
"E  c #B4ACA2",
"W  c #B4ADA3",
"Q  c #B1ADA4",
"!  c #B2ADA4",
"~  c #B3AEA5",
"^  c #B1ADA7",
"/  c #B2ADA7",
"(  c #B3AFA6",
")  c #B3AFA7",
"_  c #B4ACA4",
"`  c #B4ADA4",
"'  c #B4AEA5",
"]  c #B6AFA4",
"[  c #B4ACA6",
"{  c #B4AEA6",
"}  c #B6AEA7",
"|  c #B6AFA7",
" . c #B2ACA4",
".. c #B8AEA6",
"X. c #B1ACA8",
"o. c #B0ACAA",
"O. c #B1AFAB",
"+. c #B3AEAA",
"@. c #B2AFAB",
"#. c #B1AFAC",
"$. c #B2AEAC",
"%. c #B4AFAC",
"&. c #B3AFA9",
"*. c #B6B0A7",
"=. c #B6B0A6",
"-. c #B8B1A7",
";. c #BBB2A6",
":. c #B9B1A6",
">. c #B7B1A9",
",. c #B5B0AA",
"<. c #B7B3AA",
"1. c #B3B0AE",
"2. c #B6B2AD",
"3. c #B4B0AE",
"4. c #B5B1AA",
"5. c #B8B1A9",
"6. c #BBB3A8",
"7. c #BAB1AA",
"8. c #BAB2AB",
"9. c #BBB4A9",
"0. c #BBB4AA",
"q. c #BBB3AC",
"w. c #BAB5AC",
"e. c #BAB4AE",
"r. c #BEB5AE",
"t. c #BAB4AC",
"y. c #BEB9AD",
"u. c #BAB6B2",
"i. c #BCB7B1",
"p. c #BDB9B2",
"a. c #BBB8B4",
"s. c #BEB9B3",
"d. c #C0B7AF",
"f. c #C0B6AB",
"g. c #C0B9AF",
"h. c #C1B9AF",
"j. c #C1BAAE",
"k. c #C2B9B0",
"l. c #C1BAB2",
"z. c #C3BAB3",
"x. c #C5BCB1",
"c. c #C7BEB7",
"v. c #C3BCB4",
"b. c #C3BEB9",
"n. c #C9C0B7",
"m. c #C5C1BB",
"M. c #C9C3B9",
/* pixels */
"< 5 { z a s l z z x d * - * 0 i q 0 N q r y q q z * 3 * < d 4 0 p 5 5 s { a s s f l z U * % ; 4 a q 0 l s q y y 0 K > 3 < * 7 p ",
"5 3 W z z s s l z U z # * * q 3 0 0 x s a y 0 p z & < * * q i p 3 < 5 j K s a 0 s a z W @ & * 7 q 3 y l d s y y 0 { & = * * * z ",
"a s h.r.8.e.>.e.l.c.l.z z W K K K x 0.{ { ! ! 8.W q 0 < * d z z k q s 0.d.8.*.{ 8.e.l.x.x z c K  .N K ! :.{ ! >.h.M.s z 7 * = :.",
"S u.7 q a s a p k x f l r s K l y l ! n N 0 y y a q y q N @.b b A #.1.l 3 a d d p d  .s z r y { f y u C C ! 0 j l l j l s y @.u ",
"@.%.a 0 8 4 4 8 p x N r y y l e l C C >.! a a z l z s q z @.@.S a.@.2.f q 0 4 4 8 0 c z s e y z t y C N ! p.s a z l z x a 0 2.y ",
"s.m. .j p 0 p p k 8.! z l N C h C ! 2.b.! 7 7 s s s z q *.1.B 1.u.s.m.>.z d 0 p 0 d 6.N N l l 8.u n 2.@.u.m.0 7 z l l z j 0 ! u ",
"! >.! s s y a z k 0 p a s z N l y l ! e.C y l l N 0.l y s f y y f ! N f y y s x l z z 0 0 8 K s y y l n e.@.l s l n 8.N s y f r ",
"y l N r 9 < > y > # * > > 5 s 2 , 9 l N y 9 y u l Y , 2 , : : : , 9 9 6 , , , u 9 3 5 & & O a > < 5 9 y ! f 9 e u l l r 9 9 2 2 ",
"y e.p.n z l s N N q s s z z z 5 2 u >.v.f u l n l >.r 9 9 : : > > s u e 9 , 2 s z z z s a y 8.s f f n N c.N r l N l N l t y 9 2 ",
"z z x x 3 4 7 s j s j l.Y N n f N z K z z z N x ! >.l u r l a 0 < 9 5 s n N z l N n 8.y.0 j s s 3 4 3 { z l l z z z i.z l r l z ",
"s s q j * 3 * * 7 3 0 z 9 e e y y a a d s s l a j n l e 9 l 0 @ & * & r y 9 f t 9 e 9 x 3 5 < < * 3 * z a q 0 a q 0 ! A l y l l ",
"s p 0 z 7 0 < 3 * @ 7 y 9 2 e t e s a q s s x x N n u l r Y s = * & o 7 r e r r e 2 9 s & @ < 3 4 8 7 z 0 a a s z l <.b b u l ! ",
"Y K { r. .z z c x s K z s s s s n K Y z z { 8.{ *.&.&.N u C K z 0.! N e.>.n { x z l z { j 0 d k 0 k z &.l z N e.U K i.! >.f n { ",
"l z >.e.r.c k k z k z 0 3 3 3 ; l e e 9 e f f 0 y s n l 1 2 9 , x a s x e.K :.i 8 0 p d s 0 3 7 3 z 9 t 9 e e Y 7 0 s l ! 2 2 9 ",
"u e l  .v.:.K c K >.{ = < 0 0 0 z 5 e 2 1 r @.N C { e.n e r y 5 { y 6 9 z *.j.k k d x e.0 = q q q z 9 9 w 1 2 >.z ! ! >.>.e e y ",
"x z z d d d W s { z s N ! f r r 9 y f n f r f l n l y 9 r r y &.>.x z c p p p c p x c s z 8.l r y 9 r u n f r y l f C f 9 e r r ",
"s a s 0 7 5 z z z 9 s l f y 9 2 , 2 y f 5 2 9 2 y r 2 : 2 9 y y C s a z 0 0 5 s d x 0 r s n r r 9 , 2 9 l 5 5 9 9 2 z 9 , , 9 r ",
"y q n s q y x x z n z a y 0 y s 0 r Y s 0 q 0 7 l z y 9 r l 0 s c l q s N q s z x z n K q q r y f 0 0 z z 0 0 0 7 y l 0 5 5 y a ",
"> 5 N f a 0 y q a z s O $ & 3 3 3 9 z y 0 0 7 q >.s Y N x { 0 0 = & 5 s K s s y s a s K @ @ * < 0 3 7 s q 3 & & 3 x @ & & & * d ",
"0 7 0.{ x x l N K r.{ 5 7 q p a l s ! z x j z c r.N N x z >.k d q 3 7 K q._ ! z K K { r.q q a s s s l z k 0 3 0 a :.< 7 * & @ v ",
"n 8.K K { W W K :.r.*.! z K 8.N f z &.! *.N N ! { x z s j ! N n z l  .{ x U K W c K r.{ 8.n K i.! z z ! { ! s z N { s l s s N ! ",
"@.2.3 8 8 8 4 4 0 j s > > 3 0 < 5 r f y s y s j s z l x s l e 9 f l l q 3 3 4 ; ; 4 z s r 5 y l < < 7 r s l 0 d z s l l s q @.y ",
"2.e.N a 0 4 4 4 i K z y 9 0 u , y l z z N q 0 z l l N y l u u u n l C x s q 4 4 4 8  .z z l f x , 2 y y s ! 5 7 l j l l y 7 ! l ",
"v.m.K x K z x x c :.8.K f z  .l n ! e.b.>.s l ! { >.e.N 8.>.l 1.<.p.v.=.x K z z z K :.&.{ l z { l l ! ! v.u.s l >.! ! K N K 0.C ",
"> < 5 9 N l r 9 r z n l 2 > : : : : 2 u 9 2 1 , 9 < @ @ O @ @ 3 7 < < 5 @ & * r 2 9 f n ! l h l l b l t u 9 2 2 , 2 l 5 5 5 % $ ",
"9 9 r f e.l 9 u l l l u 2 , : : : & & u 9 2 1 : , &         & 0 s 5 9 9     @ 9 9 h u l 1.b b B b b l 9 u 9 9 1 : & y 0 0 3 3 * ",
"l x N p.p.! z N ! N *.! z y y y r y r z s z f f z *         * *.N f x z     & z z ! C 1.0.C C Y z z l y z f n f f l 1.Y N e.0.z ",
"* & @ z q 0 0 0 7 5 x l 9 , e s O . O & @ z 0 f 9 @           * * * * @     @ 0 y q 0 z N y 9 e l 9 * & 5 > l r f u r u f l s 3 ",
"= 7 3 c 0 0 8 i 0 0 z y u 9 r z & @ & @   s 9 5 9 @     @     @ = & 7 3     @ q a a q N n b l u Y 0 < 5 9 & y r e y r e 9 9 l < ",
"8 0 0 { 3 0 q d x s ! f z r s *.a y y < < N r r y #     9 X     < 8 0 8     @ a s K x Y n N l r e.z y j 9 2 z y r y r 9 9 r s * ",
"{ *.l.l.l.W W W W z { s 0 q 0 8 N l f f l ! K d z &     e >     @ ! *.!     & c c c x x x s d a 8 x l l f f z :.4 3 0 7 ! y y u ",
"0 r z Y c.c k k z  .N < * ; 7 8 l 2 e 2 1 e l y y &     , 9 O     & r r     @ k d p z *.s 0 a d q l 9 6 2 1 2 z * @ & 3 l 9 5 9 ",
"C z  .{ :.:.8.K W W x s l s s j l u f l y f >.>.e.*     r l 7       u z     & 0.c K ..K j x x s z z y f l s y ! N z z z n f l l ",
"a s q 8 3 3 d 8 4 $ 5 a f r , : & 2 9 y 5 > 9 5 y @     : 2 r @     & s     O s a s 0 9 y N y 9 2 : 2 9 s 9 < 9 9 2 l 9 > : 2 9 ",
"z a s q 7 < d i 8 3 7 a 0 2 9 6 , < y s 2 < 2 & 9 &     9 y e 9       7     O z z c l l l z y t e 2 2 r n 9 5 9 2 : Y 9 , 6 y r ",
"e.e.:.r.! *.0.k k 4 0 z y 2 r u 9 7 *.&.l n u 9 l *     r l y l 7     @     & x.:.8.K x ! *.u u l r 2 N e.N N n r r p.l 9 r l u ",
"0 8 0 s a y 0.z k p 0 d d s  .q y s l @.l l y r r <     5 f u z x           @ *.8.Y x z Y K U 8.y 0 9 y z y r 9 2 5 &.u u 9 y y ",
"< < 5 q 7 0 n y r 3 , 5 0 s k 0 r r f N s z l e 9 *     , r l l l 5         @ N f n s y y l z :.0 5 5 5 s < 5 9 : < n s 0 6 t u ",
"! x ! W ! ! ! l z s y y f j K z ! &.e.p.&.>.C l l <     0 N C l C e.@       & &.z C n l f z N x.{ K C ! r.N n f y u e.0.y y z C ",
"7 z f 9 6 9 e 9 l N z N N n 5 z 5 5 5 7 q s 2.>. .0 * < y 1.r 2 2 5 5 < & + & 9 9 r ! z N n ! N ! s < 5 < 7 7 K z z s 5 0 a C l ",
"e y r 2 < 2 6 9 r f r r y 2.9 j 4 0 7 0 0 s Y f s n e e e l 9 : , 9 e s 2 , 2 2 9 9 l 9 y r C n N k q 7 0 3 q K r 5 9 > # 2 y y ",
"9 y 9 & , , 9 9 r u e , 2 9 y z 0 z l z x  .f u l z r y t C y : e r 9 s : : , 2 9 9 l e 1 2 2 y e.c d l z z z ! 9 9 r 5 : 9 u N ",
"N N N z n N N ! p.v.a.2.e.i.>.*.y.8.>.! >.r.p.z N ! >.e.>.e.e.l z N N =.z x N N C e.b.u.e.u.2.>.&.h.c K z z c 8.l j s z  .! <.e.",
"l u 9 r ! e.f l C @.z r.N n n l q.z l u y r s r z z s s q 7 l l u l l e 9 z p.y f l C l >.z f r a K d 5 > # O 3 3 a r q 0 0 5 7 ",
"r e 9 u f C e t b n z @.f s y s q.x z l f f z f z 9 0 0 5 * 5 l z y r 9 r f z 9 9 u l f C r 5 5 7  .x s 0 5 a z f K 9 7 0 * * * ",
"l N f y z p.l l 2.! 1.p. .r s z x z W *.k k z v y.>.>.r.r.{ 0.l.z l N l s f e.N l C 1.C e.! y y f ! n { 0.K c { :.x.e.*.e.0.8. .",
"t u 9 < y 2.> , 5 r y ! l 2 9 y e 2 s q r a z k c y y z q x ! ! u e u r , 9 ! r : 2 9 r n ! 9 2 e y e f K l z K K :.s y l s z  .",
"r 9 , , 9 z 2 9 9 5 9 f 9 2 , 9 e e f 7 5 5 z d d 3 0 0 z a s C y y 9 6 : 2 r y 2 9 2 5 f y 2 , 2 9 y u z s 9 z z z 3 7 0 s a s ",
"r r e e u C f l y r l n u r 9 y r l >.s y x x d c p d d c z x >.&.u r r 9 y l n l f r f n u u 9 r r f ! x s z { s W d d k z z x ",
"s e e >.>.! ! n >.2 1 9 e 5 z 0 0 0 * 0 8.c k z k j.*.z 9 2 9 K * 9 9 e z e.{ C N @.r 1 2 e 5 z 0 0 0 < * { { z z z :.v.! l e u ",
"9 2 6 @.l s 0 7 Y e e 9 t 9 l ; 3 3 7 y d d d p p :.K e.x s q s O < : 1 l n s y 0 f u e 9 e e l ; 3 3 3 0 z d d p p k e.e.>.z l ",
"y N l N z N z l ! 8.z z ! N K K a j z ! :.W 8.K z v c 0.z z z c a 0 l z n n n n z x r.l z N ! K c j s z x r.c :.W c c K h.c c z ",
"& s 9 2 9 r t 9 r r o # = & 0 >.r u l u K l s p 0 8 3 p 8 0 = 3 & @ 0 0 9 9 9 y 9 r l o O * * 3 =.f u l u ! z x z s a 0 c 7 0 3 ",
"3 f r r 9 e u r r s & * & @ 5 z t 9 y l s 0 y p 0 p 0 0 * 5 * * 7 3 0 f 9 e e u r r z & * & $ & z u 9 y b N q s z s a p x * 5 * ",
"q { e.n C b l C l z 5 9 < 5 a l u y l N W z x l z z x z 4 4 7 s s s j y.! N N l N z Y 9 7 2 3 0 z f r l n 0.z n z x l z 8.4 3 3 ",
"y j l z l z < 1 2 e y b > , : : 9 2 r C b l N u u e.l.n l l s z N r s s z z z 9 2 2 e e n < < : : 2 9 e n b l N l r N c.n n l f ",
"& & 3 * 5 l , 1 , 2 9 r : : : : : , 2 l l l y 9 r f ! r 9 < > r < # * < = 3 l 2 : 1 2 9 y > : : : : , 2 u l l y e 9 f ! y 9 5 < ",
"a s l j l N u y r y b 2.y y 9 r u y s { ! n z s z x  .s l l z z x 0 s j s z z f y y r l 2.l y 9 e y y y K >.N z l l z ! s f l l ",
"A e.7 7 7 3 < < @ @ e.2.@.2.n u 8.l l N N 0.d 0 p 0 d z *.m.s.u.1.B @.x > 0 < < 3 & $ s e.>.@.C l ! N l z ! 8.k p p 0 p j  .m.s.",
"C 2.* & < * & * @ & n N n B y t l y e s z c 0 8 4 4 8 q f 2.@.a.S @.@.0 @ * = & * @ $ y n N C l e l y r r N x p 8 4 4 8 0 a %.&.",
"l @.7 * = = = = < < N N Y u y s { u r z s K s i p p s 3 l 1.1.A b b B s * < * 3 = = < l n ! l y l K s r l s x j 8 0 p p 0 5 u.S ",
":.; * < q 0 h.:.!  .{ :.{ K K  .K c z K n.c.8.{ { 8.r.l.0.s 0 k z z d * = 0 q W 8.{  .{ { 8.x K K K  .z z 0.f...K x c c 8.r.s a ",
"z * * * = & { 0 y y s s l y 3 q 7 * & # 8.z a s 0 s x { j 7 < 3 p i q * * < & z p 0 y a s x r 0 3 q * * @ p p - 3 > * 8 a K 3 5 ",
"p 7 * < < = G 0 y y q a z 0 q s 4 ; % * _ s a s s f s { s 5 5 p 0 4 d < * 3 * z q q y r q N 0 q q 0 * - * s a 8 3 3 3 4 g ! 5 < "
};
