/* XPM */
static char *b6fb3d5ea6484eacd67ae2bef8c8d93bvV2TLdMw0TQofsIi[] = {
/* columns rows colors chars-per-pixel */
"64 64 133 2 ",
"   c black",
".  c #0B0B0A",
"X  c #100F0E",
"o  c #151514",
"O  c #1C1C1B",
"+  c #201F1C",
"@  c #20201F",
"#  c #252321",
"$  c #282725",
"%  c #2B2927",
"&  c #2E2D2B",
"*  c #35322E",
"=  c #353532",
"-  c #383634",
";  c #3A3835",
":  c #3C3C39",
">  c #413E3C",
",  c #43413D",
"<  c #444542",
"1  c #4A4643",
"2  c #4D4A46",
"3  c #524F4A",
"4  c #54514B",
"5  c #58544F",
"6  c #565653",
"7  c #595652",
"8  c #5C5955",
"9  c #5C5C59",
"0  c #605C56",
"q  c #625E59",
"w  c #64625C",
"e  c #6A655E",
"r  c #666461",
"t  c #6A6661",
"y  c #6D6A65",
"u  c #6E6C69",
"i  c #716D66",
"p  c #726E69",
"a  c #757167",
"s  c #75716B",
"d  c #7A746E",
"f  c #7C786F",
"g  c #777570",
"h  c #7B7771",
"j  c #777872",
"k  c #7E7A74",
"l  c #827D75",
"z  c #827E79",
"x  c #897F78",
"c  c #858077",
"v  c #85827B",
"b  c #8A857C",
"n  c #8D887F",
"m  c #928B7E",
"M  c #858582",
"N  c #8B8682",
"B  c #878883",
"V  c #8C8A84",
"C  c #888788",
"Z  c #8D8D8A",
"A  c #938D83",
"S  c #9A8D81",
"D  c #928E8A",
"F  c #8F908B",
"G  c #969086",
"H  c #9A9286",
"J  c #94928C",
"K  c #9B958C",
"L  c #9D988E",
"P  c #908F90",
"I  c #959491",
"U  c #9A9691",
"Y  c #979892",
"T  c #9C9A94",
"R  c #9E9D99",
"E  c #A1978B",
"W  c #A29A8E",
"Q  c #A19790",
"!  c #A39D94",
"~  c #A89E93",
"^  c #A29E99",
"/  c #9FA09A",
"(  c #A6A196",
")  c #AAA296",
"_  c #A5A29B",
"`  c #AAA49C",
"'  c #ADA89E",
"]  c #B0A79D",
"[  c #B1A99E",
"{  c #A6A6A2",
"}  c #ABA6A1",
"|  c #ADA9A2",
" . c #ADADA9",
".. c #B2ACA4",
"X. c #B6AFA7",
"o. c #B8AEA6",
"O. c #B0ACAA",
"+. c #B4AFA9",
"@. c #B2AEAC",
"#. c #B6B1A7",
"$. c #B9B1A6",
"%. c #BAB4A7",
"&. c #B5B0A8",
"*. c #B7B1A9",
"=. c #B5B0AA",
"-. c #B7B3AA",
";. c #B3B0AC",
":. c #B7B2AC",
">. c #BAB2AB",
",. c #BBB4AA",
"<. c #BBB3AC",
"1. c #BAB4AE",
"2. c #BEB5AE",
"3. c #BDB8AD",
"4. c #BBB7B2",
"5. c #BDB7B0",
"6. c #BDB9B2",
"7. c #BBB8B4",
"8. c #BFBCB7",
"9. c #C0B6AB",
"0. c #C0B7AF",
"q. c #C1B9AF",
"w. c #C1BAAE",
"e. c #C1BAB2",
"r. c #C5BCB1",
"t. c #C3BCB4",
"y. c #C7BEB7",
"u. c #C2BDB9",
"i. c #C4BFB9",
"p. c #C9C0B7",
"a. c #C4C0BB",
"s. c #C5C0BC",
"d. c #C9C3B9",
/* pixels */
"                                                                                                                                ",
"  > l d d s s d d l d 9 q w i e i u h s s p i a d q w w w i i i e w t d k d s i s p d l 9 q w y i t p s d s p s i l q w w w ;   ",
"  w q.2.>.1.*.1.e.y.e.` ` ........' ,.X.X.....>...L K N b ~ ` ` ) L ! ,.0.>.#.X.>.1.e.r.' ` ] ....} ....$.X...*.q.d.^ ` G b 4   ",
"  s G L ! ! ! W ) ' ^ _ U ^ .._ T _ ..} } K T T ! L T L } O.{ {  .@.;._ A ! ~ ~ W ~ ..^ ` U ! X.^ T R | | ..K ( _ _ ( _ ^ T u   ",
"  y ! H G S S H W ' } U T T _ I _ | | *...! ! ` _ ` ^ L ` @.O.O.7.O.:.^ L G S S H K ] ` ^ I T ` Y T | } ..6.^ ! ` _ ` ' ! H p   ",
"  g ..( W K W W ) >...` _ } | / | ..:.u...G G ^ ^ ! ` L #.;.| ;.4.8.s.#.` ~ K W K ~ %.} } _ _ >.R } :.O.4.a.K G ` _ _ ` ( K p   ",
"  u ..! ^ T ! ` ) K W ! ^ ` } _ T _ ..1.| T _ _ } ,._ T ^ ^ T T ^ ..} ^ T T ^ ' _ ` ` K K G ..^ T T _ } 1.O._ ^ _ ' >.} ^ T w   ",
"  r } U J V N T N z b N N A ^ Z B J _ } T J T R _ ..B Z B M B M B J J F B B B R J A A v v h ! N V D J T ..^ J I T _ _ U J J 6   ",
"  s 6.} ` _ ^ } } L ^ ^ ` ` ` D Z R *.t.^ R _ } _ *.U J J M M N N ^ R I J B Z ^ ` ` ` ^ ! T >.! ^ ^ } } y.} U _ } _ } _ Y T 9   ",
"  w ' ' G S G ! ( ! ( e...} } ^ } ` ..` ` ` } ' ..*._ R U _ ! K N J D ^ } } ` _ } } >.3.K ( ! ! A S A X.` _ _ ` ` ` 5.` _ U w   ",
"  q L ( b A b b G A H ` J I I T T W ! ~ ! ^ _ ! ( } _ I J _ K l v b v U T J ^ Y I I I ' A A N N b A b ` ! L K ! L K ..| _ T w   ",
"  0 K ` G K N A b l G T J Z I Y J ! ! L ^ ^ ' ' } } R _ U ..^ n b v j G U I U U I Z J ^ v l N A S G G ` H Q ! ^ ` _ *.{ { R q   ",
"  t X.2...` ` ] ' ^ ..` ! ^ ^ ^ } ....` ` X.>.X.#.+.+.} R | ..` ,...} 1.*.} X.' ` _ ` X.( K ~ ) K ) ` +._ ` } 1.....5...*.^ w   ",
"  w *.1.2.] ) ) ` ) ` K A A A m _ I I J I ^ ^ K T ^ } _ C Z J B ' ! ^ ' 1...$.E H K W ~ ! K A G A ` J Y J I I ..G K ^ _ O.Z 6   ",
"  9 _ ..t.$...] ..*.X.n N H K K ` D I Z C U O.} | X.1.} I U T D X.T F J ` #.q.) ) ~ ' 1.K n L L L ` J J P C Z *.` ....*.*.I 9   ",
"  e ` ~ ~ ~ ..^ X.` ^ } ..^ U U J T ^ } ^ U ^ _ } _ T J U U T +.*.' ` ] W W W ] W ' ] ! ` >._ U T J U R } ^ U T _ ^ | ^ J I 9   ",
"  q ^ K G A ` ` ` J ^ _ ^ T J Z B Z T ^ D Z J Z T U Z M Z J T T | ^ ! ` H K A ^ ~ ' K U ^ ' U I J B Z J _ D D J J Z ` J B B 8   ",
"  0 } ^ L T ' ' ` } ` ! T K T ! K U ..! K L K G _ ` T J U _ K ( ] _ L ^ } L ! ` ' ` } ..L L L T ^ K K ` ` K K K G T _ K D A 9   ",
"  5 } ^ ! K T L ! ` ! h c v A A A J ` T K K G L *.^ ..} ' X.H K n v A ^ ..^ ! T ! ! ^ ..l l b N H A G ^ L A v v A ' l v v v 4   ",
"  9 ,.X.' ' ` } ..2.X.A G L W ! _ ^ ..` ' ( ` ] 2.} } ' ` *.) ( L A G ..<.....` ....X.2.L L ! ^ ^ ^ _ ` ) K A K ! $.N A b v 2   ",
"  i ....X.......$.,.#...` ..>.} ^ ` +...#.} } ..! A A A ( ..} } ` _ ..X.Q K H W ] ..2.X.>.} ..5...` ` ..X...^ ` } X.^ _ ^ ^ t   ",
"  p A G G G S S K ( ^ N N A K V D U ^ T ^ T ! ( O     . G _ I J ^ _ _ L *     + m S ` ^ U D T _ V N G U ^ _ K ~ ` ^ _ _ ^ L u   ",
"  p } ! K S S S E ..` T J K R B T _ ` ` } L K ` +       = R R R } _ | ' :     + S G [ ` ` _ ^ ' B Z T T ^ ..A G _ ( _ _ T G u   ",
"  g ..' ..` ' ' ] $.>...^ ` .._ } ..1.u.*.^ _ ..#         p _ *.:.6.t.*.>     $ ` ] $.O.X._ ` X._ _ ....t.1.T ( *.......} ..p   ",
"  6 D J } _ U J U ` } _ Z N M M M M V R J Z C B O         . p A G N V D =     # Z J ^ } .._ / _ _ { _ Y R J Z Z B Z _ A A A 3   ",
"  8 U ^ 1._ J R _ _ _ R Z B M M M v v R J Z C M O           $ K ^ D J U ;     @ I / R _ *.{ { | { { _ J R J J C M v T K H A 5   ",
"  t } 6.6...` } ..} #...` ! T T U T U ` ^ ` ^ ^ +     o       s } ^ ' } >     $ ` O.| *.,.| | ..` ` _ T ` ^ } ^ ^ _ *...} 1.s   ",
"  3 l ` L H K K G A ' _ J B I ! k f k v l ` K ^ O     > -     . h b b l *     # T L K ` } T J I _ J b v A N _ U ^ R U R ^ _ y   ",
"  7 A ] K K G E K H ` T T J U ` v l v l d ^ J D O     ; N X     % v G G =     # ! ! L } } { _ R ..K N A J v T U I T U I J J y   ",
"  8 K X.A H L ~ ' ^ ..^ ` U ^ #.! T T N V } U U O     : T i       8 K K ;     # ^ ..` ..} } _ U 1.` T ( J Z ` T U T U J J U t   ",
"  y e.e.e.........` X.! K L H G } _ ^ ^ _ ....~ +     > T T -     . ^ 1.1     $ ] ] ' ' ' ^ ~ ! G ' _ _ ^ ^ ` $.S A H G ..T 9   ",
"  9 ` ..y.] ) ) ` ..} N b m G G _ Z I Z C I _ T O     : Z J C .     & T ,     # W W ` #.^ K ! ~ L _ J F Z C Z ` b l v A _ J 6   ",
"  t ..X.$.$.>.....X.' ! _ ^ ! ( _ R ^ _ T ^ *.*.#     > ^ _ _ g       y ,     % ] ..X...( ' ' ~ ` ` T ^ _ ^ T ..} ` ` ` } ^ w   ",
"  q L G A A ~ G S c A ! ^ U B M v Z J T D N J D O     = B Z U ^ ,     . $     $ ! ^ K J T } T J Z M Z J ^ J V J J Z _ J N M 6   ",
"  q ! L G N ~ E H A G W K Z J F B V T ^ Z V Z v O     = I T I R ^ o           $ ` ] _ _ _ ` U Y I Z Z U } J D J Z M ..J B F 9   ",
"  p $.2...#.,.) ) S H ` T Z U R J G #.+._ } R J O     : R _ T _ 6.v           % $.>...' ..#.R R _ U Z } 1.} } } U U 6._ J U w   ",
"  8 H ^ ! T ,.` ) W K ~ ~ ^ ..L T ! _ O._ _ T U O     : J ^ R ` ..! *         % >...' ` ......>.T K J T ` T U J Z D +.R T J 9   ",
"  6 A L G K } T Q A B D K ! ) K U U ^ } ^ ` _ I O     - Z U _ _ _ K v .       $ ^ } ! T T _ ` $.K D D D ^ V D J M V } ^ K F 8   ",
"  t .........._ ` ^ T T ^ ( ..` ..+.1.6.+.:.| _ O     : R } | _ | 3.} z       $ ` | } _ ^ ` } r.X...| ..2.} } ^ T R 1.,.T T w   ",
"  t ^ J F J I J _ } ` } } } D ` A A A G L ^ :.*.w 3 2 p ! *.U Z Z D T } 6 < < 8 J U ..` } } ..} ..^ N A V G G ..` ` ^ D K ! w   ",
"  q U Z V Z F J U ^ U U T :.J ( S K G H H ! ..^ ^ ` I I I _ J M B J I ^ F B Z Z J J _ J T U | } } ) L G H A L ..U D J N z Z 9   ",
"  q J v B B J I U R I B Z J T ` K ` _ ` ' ..^ R _ ` U T Y | T M I U J ! v B B Z J J _ I C Z Z T 1.] ~ ( ^ ` ` ..J J U D M J 9   ",
"  t } ` ' } } ..6.t.4.:.1.5.*.#.3.>.*...*.2.6.` } ..*.1.*.1.1.` ` } } *.` ' } } | 1.i.4.1.4.:.*.+.q.] ..` ` ] >._ ( ^ ` ....y   ",
"  9 J U ..1.^ _ | O.` 2.} } } _ <.` _ R T U ^ U ` ` ^ ^ L G _ _ R _ _ I J ` 6.T ^ _ | _ *.` ^ U ! ..~ D N z k A A ! U L K H 7   ",
"  8 J R ^ | I U { } ` O.^ ! T ^ <.' ` _ ^ ^ ` ^ ` J K K A n D _ ` T U J U ^ ` J J T _ ^ | U D A G ..' ^ K D ! ` ^ ..J G K n 4   ",
"  t ^ T ` 6._ _ :...*.6...U ! ` ' ` ..#.) ) ` [ 3.*.*.2.2.X.,.e.` _ } _ ^ ^ 1.} _ | *.| 1...T T ^ ..} X.,...] X.$.r.1.#.1.,.i   ",
"  9 J B T :.N B D U T .._ Z J T I Z ^ L U ! ` ) ] T T ` L ' ....R I T U C J ..U M Z J U } ..J Z I T I ^ .._ ` ....$.^ T _ ! w   ",
"  8 B B J _ Z J J D J ^ J Z B J I I ^ G A A ` ~ ~ A H K ` ! ^ | T T J F M Z U T Z J Z D ^ T Z B Z J T R ` ^ J ` ` ` A G K ^ q   ",
"  9 I J R | ^ _ T U _ } R U J T U _ *.^ T ' ' ~ ] W ~ ~ ] ` ' *.O.R U U J T _ } _ ^ U ^ } R R J U U ^ ..' ^ ` X.^ ..~ ~ ) ` e   ",
"  9 I *.*.....} *.Z C J I D ` K H H b H >...) ` ) q.#.` J Z J ..b J J I ` 1.X.| } O.U C Z I D ` K K H N n X.X.` ) ` $.t..._ 9   ",
"  6 F .._ ^ K G ..I I J Y J _ m A A G T ~ ~ ~ W W $...1.' ! L ^ k V B C _ } ^ T K ^ ^ I J I I _ m A A A H ` ~ ~ W W ) 1.1.*.w   ",
"  y _ } } } ` _ ..>.` ` ..} ....! ( ` ..$...>...` ..] ,.] ` ` ] ! U _ ` } } } } ` ' 2._ ` } ....] ( ! ` ' 2.] $...] ] ..q.] e   ",
"  t J Z J U Y J U U j z n v K *.U R _ R .._ ^ W K G A W G K n A v l K K J J J T J U _ g k b b A #.^ T _ R ..` ' ` ^ ! H ] G 7   ",
"  y U U I I R U U ^ v b v l A ` Y J T _ ^ H T W H W H K b A b b G A K ^ J I I T U U ` v b v c v ` R J T { } T ^ ` ! ! W ' b 7   ",
"  s 1.} | { _ } _ ` D J N A ! _ R T _ } ..` ' _ ` ` ' ` S S G ^ ^ ! ( 3...} } _ } ` ..J G Z A H ` ^ U _ } ,.` } ` ' _ ` >.S 7   ",
"  w _ ` ` ` V C Z I T { N B B M J Z U | { _ } R R 1.e.} _ _ ^ ` } U ^ ^ ` ` ` J Z Z I I } V V B M Z J I } { _ } _ U } y.} } w   ",
"  3 A n A _ B C B Z J U M M B M M B Z _ _ _ T J U ^ ..U J V N U N z b N N A _ Z M C Z J T N M M M M B Z R _ _ U I J ^ ..T J 7   ",
"  q _ ( _ } R T U T { :.R T J U R T ^ X...} ` ^ ` ' ..^ _ _ ` ` ' K ^ ( ^ ` ` ^ T T U _ :._ T J I T T T ..*.} ` _ _ ` ..^ ^ w   ",
"  s G G G A N V l l 1.:.O.:.` R >._ _ } } ,.~ K W K ~ ` #.a.8.4.;.| O.' N K N N A v c ^ 1.*.O.| _ ..} _ ` ..>.) W W K W ( ..g   ",
"  p b v N b v b l v } } } | T Y _ T I ^ ` ] K H S S G L ^ :.O.4.O.O.O.K l b n v b l c T } } | _ I _ T U U } ' W H S S G H ! u   ",
"  y G n n n n n N N } } | R T ^ X.R U ` ^ ..! E W W ! A _ ;.;. .{ { | ^ n N n A n n N _ } .._ T _ ..^ U _ ^ ' ( H K W W K D p   ",
"  4 b N L H q.$.....X.$.X.........] ` ..p.y.>.X.X.>.2.e.,.! K ) ` ` ~ b n K L ..>.X...X.X.>.' ........` ` ,.9.o...' ] ] >.2.w   ",
"  , s s s i G l v v b n N v h l h s i y L A x v l b A G n h s d c l l a s s i N v l v v b A z l f l s i y v x s d s s l v A 1   ",
"                                                                                                                                "
};
