/* XPM */
static char *_56eccdcf9844d0ad8edd9d9c9341af57O0RHfgqrtcWHHJB[] = {
/* columns rows colors chars-per-pixel */
"64 64 135 2 ",
"   c #000000",
".  c #080807",
"X  c #0D0D0C",
"o  c #11100F",
"O  c #141312",
"+  c #181715",
"@  c #1A1917",
"#  c #1C1B1A",
"$  c #242322",
"%  c #282725",
"&  c #2D2D2C",
"*  c #302E2C",
"=  c #373431",
"-  c #3A3734",
";  c #3B3A35",
":  c #3B3B39",
">  c #413E3B",
",  c #45423E",
"<  c #48443F",
"1  c #474542",
"2  c #4B4743",
"3  c #4B4945",
"4  c #4E4B48",
"5  c #524F49",
"6  c #54524C",
"7  c #59554F",
"8  c #565553",
"9  c #595651",
"0  c #5C5A55",
"q  c #5C5C59",
"w  c #605C56",
"e  c #625E59",
"r  c #64625C",
"t  c #69655E",
"y  c #666461",
"u  c #6A6661",
"i  c #6D6A65",
"p  c #6E6C69",
"a  c #716D66",
"s  c #716E69",
"d  c #757167",
"f  c #75716B",
"g  c #7A746E",
"h  c #7C786F",
"j  c #767470",
"k  c #7B7771",
"l  c #777872",
"z  c #7D7A74",
"x  c #7B7C79",
"c  c #827D75",
"v  c #837E79",
"b  c #897F78",
"n  c #858077",
"m  c #85827B",
"M  c #8A857C",
"N  c #8D887F",
"B  c #928B7E",
"V  c #858582",
"C  c #8B8682",
"Z  c #878882",
"A  c #8C8A84",
"S  c #888788",
"D  c #8D8D8A",
"F  c #938D83",
"G  c #9A8D81",
"H  c #928E8A",
"J  c #8F908B",
"K  c #969086",
"L  c #9A9286",
"P  c #94928D",
"I  c #9B958C",
"U  c #9D988E",
"Y  c #908F90",
"T  c #959491",
"R  c #9A9691",
"E  c #979892",
"W  c #9C9A94",
"Q  c #9E9D99",
"!  c #A1978B",
"~  c #A29A8D",
"^  c #A19790",
"/  c #A39D94",
"(  c #A89E93",
")  c #A29E99",
"_  c #9FA09A",
"`  c #A6A196",
"'  c #AAA296",
"]  c #A5A29B",
"[  c #AAA49C",
"{  c #ADA89E",
"}  c #B0A79D",
"|  c #B1A99E",
" . c #A6A6A2",
".. c #ABA6A1",
"X. c #ADA9A2",
"o. c #ADADA9",
"O. c #B2ACA4",
"+. c #B6AFA7",
"@. c #B8AEA6",
"#. c #B0ACAA",
"$. c #B4AFA9",
"%. c #B2AEAC",
"&. c #B6B1A7",
"*. c #B9B1A6",
"=. c #BAB4A7",
"-. c #B5B0A8",
";. c #B7B1A9",
":. c #B7B3AA",
">. c #B3B0AC",
",. c #B7B2AC",
"<. c #BAB2AB",
"1. c #BBB4AA",
"2. c #BBB3AC",
"3. c #BAB4AE",
"4. c #BEB5AE",
"5. c #BEB9AD",
"6. c #BBB7B2",
"7. c #BDB7B0",
"8. c #BDB9B2",
"9. c #BBB8B4",
"0. c #BFBCB7",
"q. c #C0B6AB",
"w. c #C0B7AF",
"e. c #C1B9AF",
"r. c #C1BAAE",
"t. c #C1BAB2",
"y. c #C3BCB3",
"u. c #C5BCB1",
"i. c #C7BEB7",
"p. c #C2BDB9",
"a. c #C4BFB9",
"s. c #C9C0B7",
"d. c #C4C0BB",
"f. c #C5C0BC",
"g. c #C9C3B9",
/* pixels */
"                                                                                                                                ",
"  > c g g f f g g c g q e r a t a p k f f s a d g e r r r a a a t r u g z g f a f s g c q e r i a u s f g f s f a c e r r r ;   ",
"  r e.4.<.3.;.3.t.i.t.[ [ O.O.O.O.{ 1.+.+.O.O.<.O.U I C M ( [ [ ' U / 1.w.<.&.+.<.3.t.u.{ [ } O.O...O.O.*.+.O.;.e.g.) [ K M 6   ",
"  f K U / / / ~ ' { ) ] R ) O.] W ] O.....I W W / U W U ..#. . .o.%.>.] F / ( ( ~ ( O.) [ R / +.) W Q X.X.O.I ` ] ] ` ] ) W p   ",
"  i / L K G G L ~ { ..R W W ] T ] X.X.;.O./ / [ ] [ ) U [ %.#.#.9.#.,.) U K G G L I } [ ) T W [ E W X...O.8.) / [ ] [ { / L s   ",
"  k O.` ~ I ~ ~ ' <.O.[ ] ..X._ X.O.,.p.O.K K ) ) / [ U &.>.X.>.6.0.f.&.[ ( I ~ I ( =.....] ] <.Q ..,.#.6.d.I K [ ] ] [ ` I s   ",
"  p O./ ) W / [ ' I ~ / ) [ ..] W ] O.3.X.W ] ] ..1.] W ) ) W W ) O...) W W ) { ] [ [ I I K O.) W W ] ..3.#.] ) ] { <...) W r   ",
"  y ..R P A C W C v M C C F ) D Z P ] ..W P W Q ] O.Z D Z V Z V Z P P J Z Z Z Q P F F m m k / C A H P W O.) P T W ] ] R P P 8   ",
"  f 8...[ ] ) ....U ) ) [ [ [ H D Q ;.y.) Q ] ..] ;.R P P V V C C ) Q T P Z D ) [ [ [ ) / W <./ ) ) ....i...R ] ..] ..] E W q   ",
"  r { { K G K / ` / ` t.O.....) ..[ O.[ [ [ ..{ O.;.] Q R ] / I C P H ) ....[ ] ....<.5.I ` / / F G F +.[ ] ] [ [ [ 7.[ ] R r   ",
"  e U ` M F M M K F L [ P T T W W ~ / ( / ) ] / ` ..] T P ] I c m M m R W P ) E T T T { F F C C M F M [ / U I / U I O.X.] W r   ",
"  w I [ K I C F M c K W P D T E P / / U ) ) { { ....Q ] R O.) N M m l K R T R R T D P ) m c C F G K K [ L ^ / ) [ ] ;. . .Q e   ",
"  u +.4.O.[ [ } { ) O.[ / ) ) ) ..O.O.[ [ +.<.+.&.$.$...Q X.O.[ 1.O...3.;...+.{ [ ] [ +.` I ( ' I ' [ $.] [ ..3.O.O.7.O.;.) r   ",
"  r ;.3.4.} ' ' [ ' [ I F F F B ] T T P T ) ) I W ) ..] S D P Z { / ) { 3.O.*.! L I ~ ( / I F K F [ P E P T T O.K I ) ] #.D 8   ",
"  q ] O.y.*.O.} O.;.+.N C L I I [ H T D S R #...X.+.3...T R W H +.W J P [ &.e.' ' ( { 3.I N U U U [ P P Y S D ;.[ O.O.;.;.T q   ",
"  t [ ( ( ( O.) +.[ ) ..O.) R R P W ) ..) R ) ] ..] W P R R W $.;.{ [ } ~ ~ ~ } ~ { } / [ <.] R W P R Q ..) R W ] ) X.) P T q   ",
"  e ) I K F [ [ [ P ) ] ) W P D Z D W ) H D P D W R D V D P W W X.) / [ L I F ) ( { I R ) { R T P Z D P ] H H P P D [ P Z Z 0   ",
"  w ..) U W { { [ ..[ / W I W / I R O./ I U I K ] [ W P R ] I ` } ] U ) ..U / [ { [ ..O.U U U W ) I I [ [ I I I K W ] I H F q   ",
"  7 ..) / I W U / [ / k n m F F F P [ W I I K U ;.) O...{ +.L I N m F ) O.) / W / / ) O.c c M C L F K ) U F m m F { c m m m 6   ",
"  q 1.+.{ { [ ..O.4.+.F K U ~ / ] ) O.[ { ` [ } 4.....{ [ ;.' ` U F K O.2.O.O.[ O.O.+.4.U U / ) ) ) ] [ ' I F I / *.C F M m 3   ",
"  a O.O.+.O.O.O.*.1.&.O.[ O.<...) [ $.O.&.....O.+.{ [ / ` I a w e p ) +.{ O.O.O.} O.4.+.<...O.7.O.[ [ O.+.O.) [ ..+.) ] ) ) u   ",
"  s F K K K G G I ` ) C C F I A H R ) W ) W / ` ) [ ] C $           . - m F G B B G [ ) R H W ] A C K R ) ] I ( [ ) ] ] ) U p   ",
"  s ../ I G G G ! O.[ W P I Q Z W ] [ [ ..U I [ ] ] m .                 + F G B G K | [ [ ] ) { Z D W W ) O.F K ] ` ] ] W K p   ",
"  j O.{ O.[ { { } *.<.O.) [ O.] ..O.3.p.;.) ] O.+.+.@       : i e @       > [ [ [ } *.$.+.] [ +.] ] O.O.p.3.W ` ;.O.O.O...O.s   ",
"  8 H P ..] R P R [ ..] D C V V V V A Q P D S Z P z       < c F K m +     . T R D P ) ..O.] _ ] ]  .] E Q P D D Z D ] F F F 5   ",
"  0 R ) 3.] P Q ] ] ] Q D Z V V V m m Q P D S V Z t       f M I ) H 8 o O O M P P _ Q ] >. . .X. . .] P Q P P S V m W I L F 7   ",
"  u ..8.8.O.[ ..O...&.O.[ / W W R W R [ ) [ ) ) [ f       i [ &...) { ..;.8.<.[ [ #.X.>.1.X.X.O.[ [ ] W [ ) ..) ) ] >.O...3.f   ",
"  5 c [ U L I I K F { ] P Z T / z h z m c [ I ) P m       . 7 N N M M c U / W I W U I [ ..W P T ] P M m F C ] R ) Q R Q ) ] i   ",
"  9 F } I I K ! I L [ W W P R [ m c m c g ) P H T P :         X ; t K K ( / / U / / U .... .] Q O.I C F P m W R T W R T P P i   ",
"  0 I +.F L U ( { ) O.) [ R ) &./ W W C A ..R R W T D :             + 9 ' U / / ) O.[ O.....] R 3.[ W ` P D [ W R W R P P R u   ",
"  i t.t.t.O.O.O.O.[ +./ I U L K ..] ) ) ] O.O.( [ { $.X.j &             $ ) u.} } } { { { ) ( / K { ] ] ) ) [ *.G F L K O.W q   ",
"  q [ O.i.} ' ' [ O...C M B K K ] D T D S T ] W W [ O.] D P C 6 &         @ } ' ~ ~ [ &.) I / ( U ] P J D S D [ M c m F ] P 8   ",
"  u O.+.*.*.<.O.O.+.{ / ] ) / ` ] Q ) ] W ) ;.;.3.<.;.] ) ] ] ..t.F #       r 1.} O.+.O.` { { ) [ [ W ) ] ) W O...[ [ [ ..) r   ",
"  e U K F F ( K G n F / ) R Z V m D P W H C P H W m x f x D R ) ..W C       * ) / ) I K W ..W P D V D P ) P A P P D ] P C V 8   ",
"  e / U K C ( ! L F K ~ I D P J Z A W ) D A D m P $     @ W T Q ..../ o     % [ [ } ] ] ` [ W E T D D R ..P H P D V O.P Z J q   ",
"  s *.4.O.&.1.' ' G L [ W D R Q P K &.$.] ..Q P ] 1       z W ] 8.4.]       3 u.*.<.O.{ O.&.Q Q ] R D ..3.......R R 8.] P R r   ",
"  0 L ) / W 1.[ ' ~ I ( ( ) O.U W / ] #.] ] W R R V       X r I [ k #       k &.<.O.{ [ O.O.O.<.W I P W [ W R P D H $.Q W P q   ",
"  8 F U K I ..W ^ F Z H I / ' I R R ) ..) [ ] T P ..,                     = W ..) ../ W W ] [ *.I H H H ) A H P V A ..) I J 0   ",
"  u O.O.O.O.O.] [ ) W W ) ` O.[ O.$.3.8.$.,.X.] ] y.{ 5 .               4 O.;.$.[ X...] ) [ ..u.+.O.X.O.4.....) W Q 3.1.W W r   ",
"  u ) P J P T P ] ..[ ......H [ F F F K U ) ,.;.O...) ] F q & # @ % 3 C P P P P P R O.[ ....O...O.) C F A K K O.[ [ ) H I / r   ",
"  r R D A D J P R ) R R W ,.P ` G I K L L / O.) ) [ T T T ] P V Z P T ) J Z D D P P ] P W R X.....' U K L F U O.R H P C v D q   ",
"  e P m Z Z P T R Q T Z D P W [ I [ ] [ { O.) Q ] [ R W E X.W V T R P / m Z Z D P P ] T S D D W 3.} ( ` ) [ [ O.P P R H V P q   ",
"  u ..[ ......O.8.p.6.,.3.7.;.&.5.<.;.O.;.4.8.[ ..O.;.3.;.3.3.[ [ ....;.[ { ....X.3.a.6.3.6.,.;.$.e.} O.[ [ } <.] ` ) [ O.O.i   ",
"  q P R O.3.) ] X.#.[ 4.......] 2.[ ] Q W R ) R [ [ ) ) U K ] ] Q ] ] T P [ 8.W ) ] X.] ;.[ ) R / O.( H C v z F F / R U I L 9   ",
"  0 P Q ) X.T R  ...[ #.) / W ) 2.{ [ ] ) ) [ ) [ P I I F N H ] [ W R P R ) [ P P W ] ) X.R H F K O.{ ) I H / [ ) O.P K I N 6   ",
"  u ) W [ 8.] ] ,.O.;.8.O.R / [ { [ O.&.' ' [ | 5.;.;.4.4.+.1.t.[ ] ..] ) ) 3...] X.>.X.3.O.W W ) O...+.1.O.} +.*.u.3.&.3.1.a   ",
"  q P Z W ,.C Z H R W O.] D P W T D ) U R / [ ' } W W [ U { O.O.Q T W R S P O.R V D P R ..O.P D T W T ) O.] [ O.O.*.) W ] / r   ",
"  0 Z Z P ] D P P H P ) P D Z P T T ) K F F [ ( ( F L I [ / ) X.W W P J V D R W D P D H ) W D Z D P W Q [ ) P [ [ [ F K I ) e   ",
"  q T P Q X.) ] W R ] ..Q R P W R ] ;.) W { { ( } ~ ( ( } [ { ;.$.Q R R P W ] ..] ) R ) ..Q Q P R R ) O.{ ) [ +.) O.( ( ' [ t   ",
"  q T ;.;.O.O...;.D S P T H [ I L L M L <.O.' [ ' e.&.[ P D P O.M P P T [ 3.+.X...#.R S D T H [ I I L C N +.+.[ ' [ *.y.O.] q   ",
"  8 D O.] ) I K O.T T P E P ] B F F K W ( ( ( ~ ~ *.O.3.{ / U ) z A Z S ] ..) W I ) ) T P T T ] B F F F L [ ( ( ~ ~ ' 3.3.;.r   ",
"  i ] ......[ ] O.<.[ [ O...O.O./ ` [ O.*.O.<.O.[ O.} 1.} [ [ } / R ] [ ........[ { 4.] [ ..O.O.} ` / [ { 4.} *.O.} } O.e.} t   ",
"  u P D P R E P R R l v N m I ;.R Q ] Q O.] ) ~ I K F ~ K I N F m c I I P P P W P R ] k z M M F &.) W ] Q O.[ { [ ) / L } K 9   ",
"  i R R T T Q R R ) m M m c F [ E P W ] ) L W ~ L ~ L I M F M M K F I ) P T T W R R [ m M m n m [ Q P W  ...W ) [ / / ~ { M 9   ",
"  f 3...X. .] ..] [ H P C F / ] Q W ] ..O.[ { ] [ [ { [ G G K ) ) / ` 5.O.....] ..[ O.P K D F L [ ) R ] ..1.[ ..[ { ] [ <.G 9   ",
"  r ] [ [ [ A S D T W  .C Z Z V P D R X. .] ..Q Q 3.t...] ] ) [ ..R ) ) [ [ [ P D D T T ..A A Z V D P T .. .] ..] R ..i.....r   ",
"  5 F N F ] Z S Z D P R V V Z V V Z D ] ] ] W P R ) O.R P A C R C v M C C F ] D V S D P W C V V V V Z D Q ] ] R T P ) O.W P 9   ",
"  e ] ` ] ..Q W R W  .,.Q W P R Q W ) +.O...[ ) [ { O.) ] ] [ [ { I ) ` ) [ [ ) W W R ] ,.] W P T W W W O.;...[ ] ] [ O.) ) r   ",
"  f K K K F C A c c 3.,.#.,.[ Q <.] ] ....1.( I ~ I ( [ &.d.0.6.>.X.#.{ C I C C F m n ) 3.;.#.X.] O...] [ O.<.' ~ ~ I ~ ` O.k   ",
"  s M m C M m M c m ......X.W E ] W T ) [ } I L G G K U ) ,.#.6.#.#.#.I c M N m M c n W ....X.] T ] W R R ..{ ~ L G G K L / p   ",
"  i K N N N N N C C ....X.Q W ) +.Q R [ ) O./ ! ~ ~ / F ] >.>.o. . .X.) N C N B N N C ] ..O.] W ] O.) R ] ) { ` L I ~ ~ I H s   ",
"  6 M C U L e.*.O.O.+.*.+.O.O.O.O.} [ O.s.i.<.+.+.<.4.t.1./ I ' [ [ ( M N I U O.<.+.O.+.+.<.{ O.O.O.O.[ [ 1.q.@.O.{ } } <.4.r   ",
"  , f f f a K c m m M N C m k c k f a i U F b m c M F K N k f g n c c d f f a C m c m m M F v c h c f a i m b f g f f c m F 2   ",
"                                                                                                                                "
};
