/* XPM */
static char *_31d52ab9279484fb34f2600714715b4lmHrpAX9lRckrgPr[] = {
/* columns rows colors chars-per-pixel */
"64 64 137 2 ",
"   c #000000",
".  c #080807",
"X  c #0B0B0A",
"o  c #10100F",
"O  c #141413",
"+  c #191817",
"@  c #1F1E1C",
"#  c #21211F",
"$  c #242423",
"%  c #292726",
"&  c #2B2927",
"*  c #2E2E2C",
"=  c #32302D",
"-  c #353431",
";  c #393732",
":  c #3B3936",
">  c #3D3C3A",
",  c #413E3B",
"<  c #43423F",
"1  c #454543",
"2  c #4B4743",
"3  c #4C4A46",
"4  c #4E4E4B",
"5  c #514E47",
"6  c #524E4A",
"7  c #54524C",
"8  c #58544F",
"9  c #565552",
"0  c #595651",
"q  c #5C5A55",
"w  c #5C5C59",
"e  c #605C56",
"r  c #625F59",
"t  c #64625D",
"y  c #6A655E",
"u  c #666461",
"i  c #6A6661",
"p  c #6D6A65",
"a  c #6E6C69",
"s  c #716D66",
"d  c #716E69",
"f  c #757167",
"g  c #75716B",
"h  c #7A746E",
"j  c #7C786F",
"k  c #777570",
"l  c #7A7671",
"z  c #777872",
"x  c #7E7A74",
"c  c #827D75",
"v  c #827E79",
"b  c #897F78",
"n  c #858077",
"m  c #898175",
"M  c #85827A",
"N  c #8A857C",
"B  c #8D887F",
"V  c #928B7E",
"C  c #858582",
"Z  c #8A8681",
"A  c #878882",
"S  c #8C8A84",
"D  c #888788",
"F  c #8D8D8A",
"G  c #938D84",
"H  c #9A8D81",
"J  c #928E8A",
"K  c #8F908B",
"L  c #969086",
"P  c #9A9286",
"I  c #94928C",
"U  c #9B958C",
"Y  c #9D988E",
"T  c #908F90",
"R  c #959491",
"E  c #9A9692",
"W  c #979892",
"Q  c #9C9A94",
"!  c #9E9D99",
"~  c #A1978B",
"^  c #A29A8D",
"/  c #A19790",
"(  c #A39D94",
")  c #A89E93",
"_  c #A29E99",
"`  c #9FA09B",
"'  c #A6A196",
"]  c #AAA296",
"[  c #A5A29B",
"{  c #AAA49C",
"}  c #ADA89E",
"|  c #B0A79D",
" . c #B1A99E",
".. c #A6A6A2",
"X. c #ABA6A1",
"o. c #ADA9A2",
"O. c #ADADA9",
"+. c #B2ACA4",
"@. c #B6AFA7",
"#. c #B8AEA6",
"$. c #B3AFA9",
"%. c #B0ACAA",
"&. c #B2AEAC",
"*. c #B6B1A6",
"=. c #B6B1A7",
"-. c #B9B1A6",
";. c #BAB4A7",
":. c #B5B0A8",
">. c #B7B1A9",
",. c #B7B3AA",
"<. c #B3B0AC",
"1. c #B7B2AC",
"2. c #BAB2AB",
"3. c #BBB4AA",
"4. c #BBB3AC",
"5. c #BAB4AE",
"6. c #BEB5AE",
"7. c #BDB8AD",
"8. c #BBB7B2",
"9. c #BCB6B0",
"0. c #BDB9B2",
"q. c #BBB8B4",
"w. c #BFBCB7",
"e. c #C0B6AB",
"r. c #C0B7AF",
"t. c #C1B9AF",
"y. c #C1BAAE",
"u. c #C1BAB2",
"i. c #C2BCB3",
"p. c #C5BCB1",
"a. c #C7BEB7",
"s. c #C2BDB9",
"d. c #C4BEB8",
"f. c #C9C0B7",
"g. c #C4C0BB",
"h. c #C5C0BC",
"j. c #C9C3B9",
/* pixels */
"                                                                                                                                ",
"  , c h h g g h h c h w r t s y s a l g g d s f h r t t t s s s y t i h x h g s g d h c w r t p s i d g h g d g s c r t t t :   ",
"  t t.6.2.5.>.5.u.a.u.{ { +.+.+.+.} 3.@.@.+.+.2.+.Y U Z N ) { { ] Y ( 3.r.2.=.@.2.5.u.p.} { | +.+.X.+.+.-.@.+.>.t.j._ { L N 7   ",
"  g L Y ( ( ( ^ ] } _ [ E _ +.[ Q [ +.X.X.U Q Q ( Y Q Y X.%.....O.&.<.[ G ( ) ) ^ ) +._ { E ( @._ Q ! o.o.+.U ' [ [ ' [ _ Q a   ",
"  p ( P L H H P ^ } X.E Q Q [ R [ o.o.>.+.( ( { [ { _ Y { &.%.%.q.%.1._ Y L H H P U | { _ R Q { W Q o.X.+.0._ ( { [ { } ( P d   ",
"  k +.' ^ U ^ ^ ] 2.+.{ [ X.o.` o.+.1.s.+.L L _ _ ( { Y =.<.o.<.8.w.h.=.{ ) U ^ U ) ;.X.X.[ [ 2.! X.1.%.8.g.U L { [ [ { ' U d   ",
"  a +.( _ Q ( { ] U ^ ( _ { X.[ Q [ +.5.o.Q [ [ X.3.[ Q _ _ Q Q _ +.X._ Q Q _ } [ { { U U L +._ Q Q [ X.5.%.[ _ [ } 2.X._ Q t   ",
"  u X.E I S Z Q Z v N Z Z G _ F A I [ X.Q I Q ! [ +.A F A C A C A I I K A A A ! I G G M M x ( Z S J I Q +._ I R Q [ [ E I I 9   ",
"  g 0.X.{ [ _ X.X.Y _ _ { { { J F ! >.i._ ! [ X.[ >.E I I C C Z Z _ ! R I A F _ { { { _ ( Q 2.( _ _ X.X.a.X.E [ X.[ X.[ W Q w   ",
"  t } } H H L ( ' ( ' u.+.X.X._ X.{ +.{ { { X.} +.>.[ ! E [ ( U Z I J _ X.X.{ [ X.X.2.7.U ' ( ( G H G @.{ [ [ { { { 9.{ [ E t   ",
"  r Y ' N G N N L G P { I R R Q Q ^ ( ) ( _ [ ( ' X.[ R I [ U c M N M E Q I _ W R R R } G G Z Z N G N { ( Y U ( Y U +.o.[ Q t   ",
"  e U { L U Z G N c L Q I F R W I ( ( Y _ _ } } X.X.! [ E +._ B N M z L E R E E R F I _ M c Z G H L L { P / ( _ { [ >.....! r   ",
"  i @.6.+.{ { | } _ +.{ ( _ _ _ X.+.+.{ { @.2.@.=.$.$.X.! o.+.{ 3.+.X.5.>.X.@.} { [ { @.' U ) ] U ] { %.[ { X.5.+.+.9.+.>._ t   ",
"  t >.5.6.| ] ] { ] { U G G G V [ R R I R _ _ U Q _ X.[ D F I A } ( _ } 5.+.-.~ P U ^ ) ( U G L G { I W I R R +.L U _ [ %.F 9   ",
"  w [ +.i.-.+.| +.>.@.B Z P U U { J R F D E %.X.o.@.5.X.R E Q J @.Q K I { =.t.] ] ) } 5.U B Y Y Y { I I T D F >.{ +.+.>.>.R w   ",
"  y { ) ) ) +._ @.{ _ X.+._ E E I Q _ X._ E _ [ X.[ Q I E E Q %.>.} { | ^ ^ ^ | ^ } | ( { 2.[ E Q I E ! X._ E Q [ _ o._ I R w   ",
"  r _ U L G { { { I _ [ _ Q I F A F Q _ J F I F Q E F C F I Q Q o._ ( { P U G _ ) } U E _ X.E E I A F I [ J J I I F { I A A q   ",
"  e X._ Y Q } } { X.{ ( Q U Q ( U E +.( U Y U L [ { Q I E [ U _ | [ Y _ X.Y ( { } { X.+.Y Y E Q _ U U { { U U U L Q [ U J G w   ",
"  8 X._ ( U Q Y ( { ( x n M G G G I { Q U U L Y >._ +.X.} @.P U B M G _ +._ ( Q ( ( _ +.c c N Z P G L _ Y G M M G } c M M M 7   ",
"  w 3.@.} } { X.+.4.@.G L Y ^ ( [ _ +.{ } ' { | 6.X.X.} { >.] ' Y G L +.4.+.+.{ +.+.@.6.Y Y ( _ _ _ [ { ] U G U ( -.Z G N M 3   ",
"  s +.+.@.+.+.+.-.3.=.+.{ +.2.X._ { %.E U L U +.@.} { ( ' +.L G S Z +.@.} +.+.+.| U ( U _ X.+.9.+.{ { +.@.+._ { X.@._ [ _ _ i   ",
"  d G L L L H H U ' _ Z Z G U S J E _ -     . _ _ { [ } _ E         E Y G G H V m       > J Q [ S Z L E _ [ U ) { _ [ [ _ Y a   ",
"  d X.( U H H H ~ +.{ Q I U ! A Q [ { t       N [ [ X.Q [ d         k } _ Y H H y       g [ _ } A F Q Q _ +.G L [ ' [ [ Q L a   ",
"  k +.} +.{ } } | -.2.+._ { +.[ X.+.5.X.      y @.>.5.X.2.3         8 >.} +.{ { 5     . { [ { @.[ [ +.+.i.5.Q ' >.+.+.+.X.+.d   ",
"  9 J I X.[ E I E { X.[ F Z C C C C S ! O     - I _ G G Z O         + J J { ! E $     % +.[ ` [ [ ..[ W ! I F F A F [ G G G 5   ",
"  q E _ 5.[ I ! [ [ [ ! F A C C C M M ! :     O A ( Q L x     .       S ! >.{ I .     9 >.....o.....[ I ! I I D C M Q U P G 8   ",
"  i X.0.0.+.{ X.+.X.=.+.{ ( Q Q E Q E { p       I +.+.+.g     - @     g >.0.2.M       S 3.o.o.+.{ { [ Q { _ X._ _ [ >.+.X.5.g   ",
"  5 c { Y P U U L G } [ I A R ( x j x M g       t E E _ :     5 ;     = Y ( Q 0     X { X.Q I R [ I N M G Z [ E _ ! E ! _ [ p   ",
"  0 G | U U L ~ U P { Q Q I E { M c M c h #     < I F F X     g r     O ) ( ( -     = X.X...[ ! +.U Z G I M Q E R Q E R I I p   ",
"  q U @.G P Y ) } _ +._ { E _ =.( Q Q Z S 7     $ R I x     o G H       P Y ( O     t +.X.X.[ E 5.{ Q ' I F { Q E Q E I I E i   ",
"  p u.u.u.+.+.+.+.{ @.( U Y P L X.[ _ _ [ x     . { %.u     > E -.&     k 5.+.      L } } _ ) ( L } [ [ _ _ { -.H G P L +.Q w   ",
"  w { +.a.| ] ] { +.X.Z N V L L [ F R F D F .     v +.-     u Z } 3     , 9.M     O { =._ U ( ) Y [ I K F D F { N c M G [ I 9   ",
"  i +.@.-.-.2.+.+.@.} ( [ _ ( ' [ ! _ [ Q _ *     t +.X     U X.u.Z     O +.7     2 @.+.' } } ) { { Q _ [ _ Q +.X.{ { { X._ t   ",
"  r Y L G G ) L H n G ( _ E A C M F I Q J Z 3     * a     # E _ X.E X     c @     s U I Q X.E I F C F I _ I S I I F [ I Z C 9   ",
"  r ( Y L Z ) ~ P G L ^ U F I K A S Q _ F S a     X 1     4 R ! X.X.=     7       _ [ [ [ { Q W R F F E X.I J I F C +.I A K w   ",
"  d -.6.+.=.3.] ] H P { Q F E ! I L =.%.[ X.Q X     O     v Q [ 0.6.p     O     % 2.+.} +.=.! ! [ E F X.5.X.X.X.E E 0.[ I E t   ",
"  q P _ ( Q 3.{ ] ^ U ) ) _ +.Y Q ( [ %.[ [ Q *         X Q ! { +.( j           9 +.} { +.+.+.2.Q U I Q { Q E I F J %.! Q I w   ",
"  9 G Y L U X.Q / G A J U ( ] U E E _ X.( { [ 9         * E [ [ [ U S o         x X.( Q Q [ { -.U J J J _ S J I C S X._ U K q   ",
"  i +.+.+.+.+.[ { _ Q Q _ ' +.{ +.$.5.0.%.1.o.A         t X.o.[ o.7.X.<       X [ o.X.[ _ { X.p.@.+.o.+.6.X.X._ Q ! 5.3.Q Q y   ",
"  i _ I K I R I [ X.{ X.X.X.J { G G G L Y _ 1.>.9 6 3 5 G >.E F F J Q Z 1 1 1 q I E +.{ X.X.+.X.+._ Z G S L L +.{ { _ J U ( t   ",
"  t E F S F K I E _ E E Q 1.I ' H U L P P ( +._ _ { R R R [ I C A I R _ K A F F I I [ I Q E o.X.X.] Y L P G Y +.E J I Z v F w   ",
"  r I M A A I R E ! R A F I Q { U { [ { } +._ ! [ { E Q W o.Q C R E I ( M A A F I I [ R D F F Q 5.| ) ' _ { { +.I I E J C I w   ",
"  i X.{ X.X.X.+.0.i.8.1.5.9.>.=.7.2.>.+.>.6.0.{ X.+.>.5.>.5.5.{ { X.X.>.{ } X.X.o.5.d.8.5.8.1.>.%.t.| +.{ { | 2.[ ' _ { +.+.p   ",
"  w I E +.5._ [ o.%.{ 6.X.X.X.[ 4.{ [ ! Q E _ E { { _ _ Y L [ [ ! [ [ R I { 0.Q _ [ o.[ >.{ _ E ( +.) J Z v x G G ( E Y U P 0   ",
"  q I ! _ o.R E ..X.{ %._ ( Q _ 4.} { [ _ _ { _ { I U U G B J [ { Q E I E _ { I I Q [ _ o.E J G L +.} _ U J ( { _ +.I L U B 7   ",
"  i _ Q { 0.[ [ 1.+.>.0.+.E ( { } { +.=.] ] {  .7.>.>.6.6.@.3.u.{ [ X.[ _ _ 5.X.[ o.>.o.5.+.Q Q _ +.X.@.3.+.| @.-.p.5.=.5.3.s   ",
"  w I A Q 1.Z A J E Q +.[ F I Q R F _ Y E ( { ] | Q Q { Y } +.+.! R Q E D I +.E C F I E X.+.I F R Q R _ +.[ { +.+.-._ Q [ ( t   ",
"  q A A I [ F I I J I _ I F A I R R _ L G G { ) ) G P U { ( _ o.Q Q I K C F E Q F I F J _ Q F A F I Q ! { _ I { { { G L U _ r   ",
"  w R I ! o._ [ Q E [ X.! E I Q E [ >._ Q } } ) | ^ ) ) | { } >.%.! E E I Q [ X.[ _ E _ X.! ! I E E _ +.} _ { @._ +.) ) ] { y   ",
"  w R >.>.+.+.X.>.F D I R J { U P P N P 2.+.] { ] t.=.{ I F I +.N I I R { 5.@.o.X.%.E D F R J { U U P Z B @.@.{ ] { =.i.+.[ w   ",
"  9 F +.[ _ U L +.R R I W I [ V G G L Q ) ) ) ^ ^ -.+.5.} ( Y _ x S A D [ X._ Q U _ _ R I R R [ V G G G P { ) ) ^ ^ ] 5.5.>.t   ",
"  p [ X.X.X.{ [ +.2.{ { +.X.+.+.( ' { +.-.+.2.+.{ +.| 3.| { { | ( E [ { X.X.X.X.{ } 6.[ { X.+.+.| ' ( { } 6.| -.+.| | +.t.| y   ",
"  i I F I E W I E E z v B M U >.E ! [ ! +.[ _ ^ U L G ^ L U B G M c U U I I I Q I E [ k x N N G =._ Q [ ! +.{ } { _ ( P | L 0   ",
"  p E E R R ! E E _ M N M c G { W I Q [ _ P Q ^ P ^ P U N G N N L G U _ I R R Q E E { M N M n M { ! I Q ..X.Q _ { ( ( ^ } N 0   ",
"  g 5.X.o...[ X.[ { J I Z G ( [ ! Q [ X.+.{ } [ { { } { H H L _ _ ( ' 7.+.X.X.[ X.{ +.I L F G P { _ E [ X.3.{ X.{ } [ { 2.H 0   ",
"  t [ { { { S D F R Q ..Z A A C I F E o...[ X.! ! 5.u.X.[ [ _ { X.E _ _ { { { I F F R R X.S S A C F I R X...[ X.[ E X.a.X.X.t   ",
"  5 G B G [ A D A F I E C C A C C A F [ [ [ Q I E _ +.E I S Z E Z v N Z Z G [ F C D F I Q Z C C C C A F ! [ [ E R I _ +.Q I 0   ",
"  r [ ' [ X.! Q E Q ..1.! Q I E ! Q _ @.+.X.{ _ { } +._ [ [ { { } U _ ' _ { { _ Q Q E [ 1.[ Q I R Q Q Q +.>.X.{ [ [ { +._ _ y   ",
"  g L L L G Z S c c 5.1.%.1.{ ! 2.[ [ X.X.3.) U ^ U ) { =.g.w.8.<.o.%.} Z U Z Z G M n _ 5.>.%.o.[ +.X.[ { +.2.] ^ ^ U ^ ' +.k   ",
"  d N M Z N M N c M X.X.X.o.Q W [ Q R _ { | U P H H L Y _ 1.%.8.%.%.%.U c N B M N c n Q X.X.o.[ R [ Q E E X.} ^ P H H L P ( a   ",
"  p L B B B B B Z Z X.X.o.! Q _ @.! E { _ +.( ~ ^ ^ ( G [ <.<.O.....o._ B Z B G B B Z [ X.+.[ Q [ +._ E [ _ } ' P U ^ ^ U J d   ",
"  7 N Z Y P t.-.+.+.@.-.@.+.+.+.+.| { +.f.a.2.@.@.2.6.u.3.( U ] { { ) N B U Y +.2.@.+.@.@.2.} +.+.+.+.{ { 3.e.#.+.} | | 2.6.t   ",
"  < g g g s L c M M N B Z M l c x g s p Y G b M c N G L B x g h n c c f g g s Z M c M M N G v c j c g s p M b g h g g c M G 2   ",
"                                                                                                                                "
};
